<svg width="35" height="35" viewBox="0 0 35 35" fill="none" xmlns="http://www.w3.org/2000/svg">
<circle cx="17.5" cy="17.5" r="16.5" fill="black" stroke="white" stroke-width="2"/>
<path fill-rule="evenodd" clip-rule="evenodd" d="M18.3763 21.3763C18.1888 21.5638 17.9345 21.6691 17.6693 21.6691C17.4041 21.6691 17.1498 21.5638 16.9623 21.3763L11.3053 15.7193C11.2098 15.627 11.1336 15.5167 11.0812 15.3947C11.0288 15.2727 11.0012 15.1415 11 15.0087C10.9989 14.8759 11.0242 14.7442 11.0745 14.6213C11.1247 14.4984 11.199 14.3868 11.2929 14.2929C11.3868 14.199 11.4984 14.1247 11.6213 14.0745C11.7442 14.0242 11.8759 13.9989 12.0087 14C12.1415 14.0012 12.2727 14.0288 12.3947 14.0812C12.5167 14.1336 12.627 14.2098 12.7193 14.3053L17.6693 19.2553L22.6193 14.3053C22.8079 14.1231 23.0605 14.0223 23.3227 14.0246C23.5849 14.0269 23.8357 14.1321 24.0211 14.3175C24.2065 14.5029 24.3117 14.7537 24.314 15.0159C24.3162 15.2781 24.2154 15.5307 24.0333 15.7193L18.3763 21.3763Z" fill="white"/>
</svg>
