<svg width="24" height="24" viewBox="0 0 24 24" fill="none" xmlns="http://www.w3.org/2000/svg">
<path d="M2.39844 4.7999C2.39844 4.16338 2.65129 3.55293 3.10138 3.10285C3.55147 2.65276 4.16192 2.3999 4.79844 2.3999H19.1984C19.835 2.3999 20.4454 2.65276 20.8955 3.10285C21.3456 3.55293 21.5984 4.16338 21.5984 4.7999C21.5984 5.43642 21.3456 6.04687 20.8955 6.49696C20.4454 6.94705 19.835 7.1999 19.1984 7.1999H4.79844C4.16192 7.1999 3.55147 6.94705 3.10138 6.49696C2.65129 6.04687 2.39844 5.43642 2.39844 4.7999ZM4.79844 11.9999C4.79844 11.3634 5.05129 10.7529 5.50138 10.3028C5.95147 9.85276 6.56192 9.5999 7.19844 9.5999H16.7984C17.435 9.5999 18.0454 9.85276 18.4955 10.3028C18.9456 10.7529 19.1984 11.3634 19.1984 11.9999C19.1984 12.6364 18.9456 13.2469 18.4955 13.697C18.0454 14.147 17.435 14.3999 16.7984 14.3999H7.19844C6.56192 14.3999 5.95147 14.147 5.50138 13.697C5.05129 13.2469 4.79844 12.6364 4.79844 11.9999ZM9.59844 16.7999C8.96192 16.7999 8.35147 17.0528 7.90138 17.5028C7.45129 17.9529 7.19844 18.5634 7.19844 19.1999C7.19844 19.8364 7.45129 20.4469 7.90138 20.897C8.35147 21.347 8.96192 21.5999 9.59844 21.5999H14.3984C15.035 21.5999 15.6454 21.347 16.0955 20.897C16.5456 20.4469 16.7984 19.8364 16.7984 19.1999C16.7984 18.5634 16.5456 17.9529 16.0955 17.5028C15.6454 17.0528 15.035 16.7999 14.3984 16.7999H9.59844Z" fill="black"/>
</svg>
