<svg width="1384" height="428" viewBox="0 0 1384 428" fill="none" xmlns="http://www.w3.org/2000/svg">
<g filter="url(#filter0_f_711_1146)">
<mask id="mask0_711_1146" style="mask-type:luminance" maskUnits="userSpaceOnUse" x="-161" y="2" width="854" height="425">
<path d="M-161 2L692.238 2V427L-161 427V2Z" fill="white"/>
</mask>
<g mask="url(#mask0_711_1146)">
<path d="M778.203 433.029C772.088 407.317 737.177 391.963 703.616 388.988C670.055 386.013 635.783 391.857 601.796 391.857C510.784 391.804 424.963 345.001 395.17 279.126C385.643 258.035 381.447 235.51 372.133 214.313C362.818 193.17 347.033 172.504 321.365 162.463C284.463 147.96 238.246 159.117 200.988 175.32C163.729 191.523 128.889 212.985 87.6491 220.423C33.4685 230.198 -22.9163 213.357 -64.3695 186.317C-105.823 159.276 -135.117 122.885 -163.701 87.0791" stroke="#FF4DC4" stroke-miterlimit="10"/>
<path d="M780.266 430.532C773.511 404.926 738.741 389.626 705.11 386.545C690.533 385.217 675.886 385.535 661.168 386.439C641.828 387.607 622.488 389.679 603.29 389.998C564.112 390.635 525.859 383.145 492.298 368.589C466.345 357.326 443.308 342.504 424.892 324.707C411.738 312.064 401.215 297.826 393.891 282.367C390.62 275.46 387.918 268.342 385.43 261.17C380.381 246.614 376.257 231.845 369.716 217.767C362.321 201.776 351.087 186.317 334.449 175.798C329.258 172.504 323.641 169.689 317.455 167.457C291.574 158.161 261.639 161.348 232.985 169.264C220.613 172.664 208.454 176.967 197.149 181.536C184.492 186.689 172.12 192.214 159.819 197.526C135.644 207.939 111.683 217.554 85.801 221.007C68.9495 223.292 52.3825 222.654 35.8866 219.945C2.53923 214.367 -30.3104 199.492 -57.6851 180.473C-65.151 175.267 -72.3324 169.742 -79.3005 164.057C-110.088 138.664 -135.827 109.339 -161.211 81.6074" stroke="#F552C5" stroke-miterlimit="10"/>
<path d="M782.254 428.035C774.859 402.589 740.232 387.288 706.529 384.101C691.953 382.72 677.235 383.039 662.445 383.995C643.105 385.27 623.836 387.554 604.567 388.192C565.46 389.52 527.349 383.198 493.433 369.279C467.196 358.495 443.803 344.363 424.676 327.257C411.024 314.985 400.145 300.96 392.466 285.607C389.053 278.754 386.209 271.635 383.649 264.464C378.388 249.96 374.051 235.139 367.225 221.167C359.474 205.282 347.885 190.195 330.678 180.207C325.345 177.126 319.657 174.47 313.471 172.451C287.447 164.004 257.939 167.988 229.356 175.904C216.913 179.357 204.683 183.448 193.306 187.751C180.508 192.532 167.994 197.632 155.764 202.254C131.66 211.445 108.409 219.573 84.0207 221.592C68.2358 222.92 53.0908 221.379 37.9459 217.873C7.22928 210.701 -23.9849 194.445 -50.8619 174.629C-58.2567 169.157 -65.367 163.473 -72.3351 157.629C-103.407 131.492 -131.066 102.379 -158.441 76.1885" stroke="#EB57C7" stroke-miterlimit="10"/>
<path d="M784.316 425.485C776.282 400.197 741.868 384.844 708.094 381.604C693.518 380.222 678.728 380.488 663.939 381.497C644.599 382.826 625.33 385.322 606.132 386.279C567.096 388.244 529.056 383.198 494.784 369.863C468.334 359.557 444.443 346.169 424.677 329.701C410.456 317.854 399.222 304.041 391.258 288.794C387.703 281.994 384.788 274.929 382.015 267.757C376.54 253.254 371.918 238.432 364.879 224.566C356.844 208.788 344.828 194.072 327.123 184.563C321.648 181.641 315.96 179.197 309.703 177.391C283.608 169.794 254.456 174.576 225.872 182.491C213.429 185.944 201.128 189.929 189.538 193.913C176.598 198.376 164.012 202.891 151.783 206.982C127.75 214.951 105.068 221.591 82.2437 222.122C67.4542 222.494 53.8735 220.051 40.0795 215.801C11.9938 207.141 -17.5852 189.451 -43.9645 168.732C-51.217 163.047 -58.3273 157.097 -65.3665 151.094C-96.723 124.16 -126.373 95.3131 -155.667 70.6631" stroke="#E15DC8" stroke-miterlimit="10"/>
<path d="M786.379 422.988C777.704 397.806 743.433 382.506 709.587 379.16C694.94 377.725 680.151 377.991 665.361 379.106C646.021 380.541 626.752 383.197 607.626 384.525C568.661 387.128 530.692 383.303 496.136 370.606C469.401 360.778 445.084 348.135 424.677 332.303C409.888 320.881 398.298 307.281 390.05 292.141C386.352 285.341 383.295 278.328 380.451 271.156C374.763 256.706 369.928 241.831 362.533 228.072C354.143 212.453 341.842 198.003 323.497 189.078C317.951 186.369 312.121 184.085 305.935 182.491C279.698 175.744 250.972 181.322 222.46 189.291C210.017 192.797 197.574 196.569 185.913 200.288C172.901 204.431 160.102 208.469 147.943 211.869C123.982 218.563 101.869 223.769 80.6088 222.866C66.8148 222.281 54.7984 218.935 42.2842 213.888C16.8293 203.635 -11.0432 184.616 -37.0669 163.047C-44.1772 157.097 -51.2876 150.988 -58.3979 144.825C-90.0388 117.147 -121.609 88.5658 -152.894 65.4033" stroke="#D762CA" stroke-miterlimit="10"/>
<path d="M788.367 420.492C779.124 395.47 744.923 380.17 711.007 376.717C696.36 375.23 681.499 375.495 666.71 376.664C647.37 378.152 628.101 381.073 609.045 382.667C570.152 385.961 532.254 383.305 497.342 371.245C470.323 361.895 445.65 349.942 424.532 334.802C409.174 323.752 397.3 310.417 388.696 295.33C384.857 288.583 381.657 281.57 378.742 274.398C372.769 259.948 367.721 245.073 360.113 231.42C351.438 215.908 338.711 201.83 319.797 193.383C314.109 190.833 308.279 188.761 302.021 187.38C275.713 181.483 247.343 187.805 218.831 195.827C206.317 199.333 193.802 202.998 181.999 206.398C168.845 210.223 155.976 213.73 143.817 216.545C119.926 222.017 98.3819 225.736 78.6863 223.345C65.8167 221.805 55.4355 217.555 44.2012 211.711C21.3771 199.917 -4.85988 179.464 -30.3859 157.045C-37.4251 150.83 -44.4644 144.508 -51.5747 138.186C-83.5 109.711 -116.99 81.3953 -150.337 59.7734" stroke="#CD67CB" stroke-miterlimit="10"/>
<path d="M790.43 417.942C780.546 393.079 746.488 377.726 712.501 374.273C697.853 372.785 682.922 372.998 668.132 374.22C648.721 375.813 629.523 378.895 610.468 380.807C571.645 384.738 533.818 383.357 498.622 371.882C471.319 363.01 446.219 351.801 424.462 337.298C408.535 326.673 396.305 313.551 387.417 298.57C383.506 291.876 380.164 284.917 377.036 277.745C370.85 263.295 365.588 248.42 357.696 234.873C348.737 219.467 335.654 205.707 316.1 197.845C310.27 195.507 304.368 193.595 298.111 192.426C271.661 187.379 243.717 194.498 215.205 202.52C202.691 206.026 190.035 209.532 178.16 212.667C164.864 216.173 151.923 219.148 139.693 221.326C115.945 225.576 94.7563 227.807 76.7672 223.982C64.8219 221.432 56.005 216.279 46.1217 209.745C25.9284 196.41 1.32666 174.576 -23.7728 151.307C-30.6698 144.879 -37.7089 138.345 -44.8904 131.863C-77.1001 102.645 -112.58 74.5416 -147.848 54.4072" stroke="#C36CCD" stroke-miterlimit="10"/>
<path d="M792.422 415.445C781.899 390.742 747.982 375.389 713.995 371.83C699.277 370.289 684.345 370.502 669.484 371.777C650.073 373.423 630.947 376.717 611.891 379.002C573.14 383.623 535.384 383.411 499.903 372.573C472.315 364.18 446.789 353.714 424.463 339.848C407.967 329.648 395.382 316.739 386.209 301.864C382.157 295.223 378.672 288.264 375.473 281.092C369.074 266.695 363.599 251.767 355.422 238.327C346.107 223.027 332.74 209.639 312.547 202.255C306.645 200.077 300.672 198.377 294.344 197.367C267.823 193.17 240.235 201.086 211.793 209.108C199.208 212.667 186.481 216.014 174.535 218.83C161.097 222.017 148.014 224.461 135.855 226.055C112.178 229.083 91.4868 229.72 75.2042 224.567C64.1121 221.061 57.0017 215.005 48.3983 207.673C30.8358 192.745 7.94056 169.583 -16.7322 145.411C-23.5581 138.717 -30.5262 131.97 -37.7788 125.33C-70.2729 95.3141 -107.673 67.5297 -144.931 48.8828" stroke="#B972CE" stroke-miterlimit="10"/>
<path d="M794.484 412.948C783.321 388.351 749.547 373.051 715.489 369.386C700.77 367.792 685.768 368.004 670.907 369.332C651.496 371.086 632.369 374.539 613.385 377.142C574.704 382.401 537.02 383.41 501.184 373.21C473.311 365.295 447.359 355.573 424.392 342.345C407.328 332.517 394.458 319.873 384.93 305.051C380.735 298.464 377.18 291.504 373.838 284.332C367.225 269.936 361.466 255.007 353.076 241.673C343.477 226.479 329.683 213.411 308.992 206.611C302.948 204.645 296.904 203.104 290.576 202.307C263.912 198.961 236.822 207.673 208.31 215.695C195.725 219.254 182.926 222.442 170.767 224.992C157.187 227.861 144.033 229.826 131.874 230.729C108.268 232.536 88.0033 231.579 73.4272 225.045C63.1883 220.476 57.7844 213.57 50.4608 205.548C35.5291 189.026 14.2693 164.536 -9.97688 139.514C-16.6606 132.607 -23.6287 125.648 -30.8812 118.795C-63.6598 88.0355 -102.98 60.4637 -142.229 43.3574" stroke="#AF77CF" stroke-miterlimit="10"/>
<path d="M796.477 410.398C784.673 385.96 751.042 370.607 716.912 366.889C702.194 365.295 687.191 365.454 672.259 366.835C652.848 368.642 633.721 372.361 614.808 375.282C576.199 381.232 538.656 383.464 502.465 373.848C474.308 366.411 447.929 357.432 424.323 344.842C406.689 335.439 393.464 323.007 383.652 308.292C379.314 301.757 375.617 294.851 372.133 287.679C365.236 273.336 359.334 258.354 350.589 245.126C340.634 230.039 326.556 217.289 305.225 211.073C299.11 209.267 292.995 207.992 286.596 207.354C259.861 204.857 233.126 214.367 204.614 222.389C191.958 225.948 179.088 229.029 166.858 231.261C153.135 233.757 139.91 235.245 127.751 235.564C104.287 236.148 84.3784 233.492 71.5087 225.736C62.1231 220.104 58.4257 212.401 52.382 203.582C40.0811 185.52 20.4566 159.595 -3.29183 133.776C-9.83332 126.604 -16.8015 119.432 -24.1251 112.473C-57.1881 80.9699 -98.4277 53.6105 -139.668 38.0449" stroke="#A57CD1" stroke-miterlimit="10"/>
<path d="M798.539 407.9C786.167 383.622 752.606 368.269 718.406 364.444C703.687 362.797 688.614 362.956 673.682 364.444C654.271 366.356 635.144 370.234 616.231 373.475C577.693 380.063 540.221 383.516 503.674 374.538C475.233 367.578 448.356 359.344 424.181 347.391C405.978 338.413 392.398 326.194 382.301 311.584C377.822 305.103 373.982 298.197 370.427 291.025C363.317 276.681 357.131 261.7 348.172 248.578C337.933 233.65 323.499 221.166 301.528 215.481C295.271 213.888 289.085 212.772 282.686 212.347C255.809 210.7 229.5 220.953 201.059 229.028C188.403 232.641 175.391 235.51 163.09 237.475C149.296 239.653 135.857 240.61 123.77 240.291C100.377 239.653 80.8947 235.244 69.7315 226.266C61.2703 219.466 59.1372 211.019 54.4444 201.456C44.7743 181.8 26.7852 154.547 3.5345 127.825C-2.93589 120.388 -9.83287 113.056 -17.2276 105.885C-50.575 73.5846 -93.8057 46.5439 -137.036 32.4658" stroke="#9B81D2" stroke-miterlimit="10"/>
<path d="M800.598 405.404C787.586 381.232 754.167 365.932 719.967 362.001C705.177 360.301 690.103 360.46 675.101 362.001C655.689 363.966 636.634 368.057 617.72 371.616C579.254 378.894 541.853 383.516 505.022 375.176C476.296 368.694 448.993 361.204 424.178 349.888C405.406 341.335 391.47 329.329 381.089 314.772C376.467 308.344 372.557 301.438 368.859 294.266C361.536 279.922 355.136 264.994 345.893 251.926C335.37 237.104 320.58 224.938 297.969 219.838C291.641 218.404 285.313 217.501 278.985 217.288C252.037 216.491 226.084 227.541 197.643 235.616C184.915 239.229 171.832 241.991 159.389 243.638C145.453 245.497 131.944 245.976 119.856 245.019C96.6052 243.16 77.6207 236.944 68.0217 226.851C60.4848 218.935 59.9871 209.744 56.5742 199.438C49.5349 178.188 33.2523 149.607 10.3571 122.035C4.02892 114.385 -2.86809 106.788 -10.2628 99.51C-43.8946 66.4662 -89.0451 39.6381 -134.267 27.1006" stroke="#9187D4" stroke-miterlimit="10"/>
<path d="M802.59 402.853C788.938 378.841 755.662 363.488 721.39 359.503C706.601 357.803 691.456 357.91 676.453 359.503C656.971 361.575 637.986 365.878 619.144 369.756C580.748 377.672 543.419 383.516 506.232 375.813C477.222 369.81 449.491 363.063 424.037 352.385C404.696 344.256 390.476 332.463 379.739 318.013C375.046 311.638 370.922 304.785 367.154 297.613C359.617 283.322 353.004 268.341 343.477 255.431C332.598 240.716 317.524 228.816 294.273 224.3C287.803 223.025 281.475 222.335 275.075 222.335C247.985 222.388 222.459 234.235 194.018 242.363C181.29 245.975 168.136 248.578 155.551 249.96C141.473 251.5 127.892 251.447 115.804 249.853C92.6246 246.825 74.2799 238.75 66.2452 227.488C59.7038 218.403 60.7704 208.469 58.7084 197.419C54.3711 174.575 39.6527 144.613 17.2552 116.191C11.0693 108.275 4.24341 100.519 -3.29352 93.0283C-37.2097 59.1877 -84.2801 32.6252 -131.493 21.5752" stroke="#878CD5" stroke-miterlimit="10"/>
<path d="M804.652 400.357C790.361 376.504 757.227 361.151 722.884 357.114C708.094 355.361 692.878 355.467 677.875 357.114C658.393 359.239 639.409 363.754 620.637 367.951C582.313 376.504 545.055 383.623 507.583 376.504C478.36 370.979 450.132 364.976 424.037 354.936C404.057 347.232 389.552 335.651 378.531 321.307C373.696 314.986 369.43 308.132 365.519 300.961C357.698 286.67 350.872 271.689 341.06 258.886C329.896 244.276 314.467 232.695 290.648 228.764C284.106 227.701 277.636 227.17 271.236 227.382C244.075 228.286 218.904 240.929 190.534 249.057C177.807 252.723 164.51 255.114 151.854 256.229C137.633 257.451 123.982 256.92 111.894 254.689C88.8567 250.439 71.1521 240.557 64.5395 228.179C59.0645 217.926 61.6241 207.301 60.842 195.454C59.1355 171.07 46.0526 139.726 24.0817 110.454C17.9668 102.273 11.212 94.3043 3.67509 86.7074C-30.5255 52.123 -79.5156 25.8262 -128.719 16.2637" stroke="#7D91D7" stroke-miterlimit="10"/>
<path d="M806.641 397.86C791.709 374.113 758.717 358.813 724.303 354.67C709.443 352.863 694.227 352.97 679.224 354.67C659.741 356.901 640.757 361.576 621.986 366.145C583.732 375.388 546.545 383.676 508.718 377.195C479.211 372.148 450.485 366.941 423.821 357.485C403.272 350.207 388.412 338.838 377.106 324.548C372.129 318.226 367.792 311.426 363.739 304.254C355.704 290.016 348.665 274.982 338.568 262.285C327.05 247.782 311.336 236.466 286.877 233.12C280.193 232.216 273.722 231.898 267.252 232.323C239.948 234.023 215.205 247.516 186.834 255.645C174.036 259.31 160.668 261.595 147.87 262.391C133.507 263.295 119.713 262.232 107.697 259.363C84.7302 253.891 67.7366 242.257 62.546 228.71C58.2087 217.288 62.1905 205.92 62.6882 193.382C63.6837 167.404 52.1649 134.732 30.6918 104.557C24.7191 96.1633 17.9643 87.982 10.3563 80.1727C-24.1287 44.7914 -75.1098 18.7602 -126.304 10.7383" stroke="#7396D8" stroke-miterlimit="10"/>
<path d="M808.703 395.31C793.203 371.723 760.282 356.37 725.868 352.173C711.007 350.367 695.72 350.42 680.646 352.226C661.164 354.51 642.18 359.451 623.479 364.286C585.297 374.167 548.252 383.676 510.07 377.832C480.278 373.264 451.125 368.801 423.822 359.982C402.704 353.129 387.559 341.973 375.898 327.789C370.779 321.52 366.299 314.773 362.175 307.601C353.927 293.364 346.604 278.329 336.294 265.739C324.491 251.342 308.492 240.345 283.322 237.582C276.496 236.839 269.954 236.732 263.484 237.37C236.109 239.92 211.721 254.157 183.422 262.339C170.623 266.057 157.114 268.129 144.244 268.661C129.81 269.192 115.874 267.704 103.857 264.198C80.9622 257.557 64.7506 244.17 60.9111 229.348C57.7114 216.811 63.1153 204.698 64.8929 191.364C68.5192 163.792 58.7069 129.792 37.5893 98.7668C31.7588 90.1074 25.004 81.7137 17.3249 73.798C-17.4446 37.673 -70.3453 11.8543 -123.53 5.37305" stroke="#699CD9" stroke-miterlimit="10"/>
<path d="M810.695 392.813C794.555 369.385 761.776 354.032 727.291 349.729C712.431 347.87 697.072 347.923 681.999 349.782C662.516 352.173 643.603 357.273 624.903 362.426C586.791 372.998 549.818 383.729 511.351 378.47C481.274 374.379 451.624 370.66 423.752 362.479C402.065 356.104 386.565 345.107 374.62 331.029C369.358 324.813 364.807 318.067 360.47 310.895C352.009 296.71 344.472 281.623 333.877 269.138C321.79 254.901 305.436 244.117 279.626 241.992C272.729 241.407 266.116 241.513 259.575 242.363C232.058 245.763 208.096 260.798 179.797 268.979C166.927 272.698 153.346 274.663 140.335 274.876C125.758 275.088 111.751 273.07 99.7347 268.926C76.9817 261.063 61.4812 245.923 58.9926 229.932C56.9306 216.279 63.8276 203.423 66.8139 189.345C73.2132 160.232 64.8942 124.798 44.2743 92.976C38.5149 84.1041 31.8312 75.4978 24.152 67.3697C-10.9018 30.4478 -65.7224 4.89473 -120.898 -0.0458984" stroke="#5FA1DB" stroke-miterlimit="10"/>
<path d="M812.758 390.317C795.977 367.048 763.341 351.695 728.785 347.285C713.853 345.373 698.495 345.426 683.421 347.339C663.868 349.835 645.025 355.095 626.325 360.62C588.285 371.829 551.383 383.782 512.56 379.16C482.199 375.548 452.123 372.626 423.61 365.029C401.284 359.079 385.499 348.295 373.269 334.323C367.865 328.16 363.172 321.414 358.764 314.242C350.09 300.057 342.339 284.97 331.46 272.592C319.017 258.46 302.308 247.942 276 246.401C268.961 245.976 262.277 246.295 255.736 247.304C228.148 251.554 204.541 267.385 176.242 275.567C163.373 279.285 149.721 281.092 136.567 281.038C121.848 280.932 107.699 278.435 95.7535 273.654C73.0715 264.57 58.3532 247.782 57.2867 230.464C56.3623 215.748 64.6814 202.042 68.9476 187.22C77.9777 156.567 71.294 119.751 51.1718 87.026C45.5547 77.8885 38.871 69.0697 31.1207 60.8354C-4.21753 23.1697 -60.958 -2.11777 -118.125 -5.62402" stroke="#55A6DC" stroke-miterlimit="10"/>
<path d="M814.82 387.766C797.4 364.604 764.977 349.251 730.279 344.788C715.347 342.876 699.989 342.876 684.844 344.841C665.29 347.391 646.448 352.916 627.819 358.707C589.85 370.607 553.018 383.729 513.912 379.744C483.266 376.61 452.763 374.485 423.611 367.472C400.715 361.947 384.646 351.376 372.061 337.457C366.515 331.347 361.68 324.654 357.2 317.482C348.241 303.297 340.278 288.21 329.115 275.938C316.387 261.913 299.322 251.66 272.374 250.757C265.264 250.544 258.509 251.076 251.896 252.244C224.166 257.344 201.058 273.972 172.759 282.154C159.818 285.926 146.095 287.572 132.87 287.201C118.009 286.776 103.788 283.747 91.8431 278.329C69.2323 268.076 55.2961 249.535 55.5805 230.994C55.7938 215.216 65.4639 200.713 71.0811 185.094C82.742 152.847 77.7647 114.704 57.9981 81.1287C52.5231 71.7256 45.8394 62.7474 38.0181 54.3006C2.39539 15.8381 -56.3359 -9.18379 -115.423 -11.1494" stroke="#4BABDE" stroke-miterlimit="10"/>
<path d="M816.812 385.27C798.823 362.267 766.471 346.914 731.773 342.345C716.841 340.379 701.412 340.379 686.196 342.398C666.643 345.054 647.8 350.739 629.242 356.901C591.344 369.439 554.584 383.835 515.122 380.435C484.192 377.779 453.191 376.398 423.541 370.023C400.077 364.976 383.652 354.564 370.711 340.751C365.094 334.695 360.117 328.001 355.424 320.829C346.252 306.698 338.075 291.557 326.627 279.392C313.544 265.473 296.195 255.485 268.607 255.167C261.355 255.114 254.529 255.857 247.987 257.239C220.186 263.189 197.433 280.614 169.134 288.848C156.193 292.62 142.328 294.107 128.96 293.47C113.958 292.726 99.5949 289.22 87.7207 283.163C65.181 271.742 52.0268 251.501 53.6622 231.632C55.0842 214.792 66.1052 199.492 73.0022 183.129C87.2939 149.288 83.9521 109.817 64.6832 75.3385C59.2793 65.7229 52.6668 56.4791 44.8454 47.926C8.93835 8.71972 -51.7127 -16.0896 -112.861 -16.5146" stroke="#41B1DF" stroke-miterlimit="10"/>
<path d="M818.871 382.773C800.242 359.929 768.032 344.576 733.263 339.954C718.26 337.935 702.831 337.935 687.615 340.007C668.061 342.716 649.219 348.613 630.732 355.095C592.905 368.323 556.216 383.888 516.469 381.126C485.255 378.948 453.827 378.416 423.537 372.573C399.504 368.004 382.724 357.751 369.499 344.045C363.74 338.041 358.62 331.348 353.856 324.176C344.471 310.045 336.009 294.904 324.348 282.845C310.981 269.032 293.276 259.257 265.048 259.629C257.725 259.735 250.828 260.691 244.215 262.285C216.272 269.085 193.945 287.254 165.646 295.541C152.634 299.313 138.698 300.695 125.26 299.738C110.186 298.676 95.6806 294.638 83.8064 287.945C61.3378 275.301 48.9658 253.413 51.9521 232.27C54.5118 214.366 66.955 198.216 75.1318 181.11C92.1255 145.729 90.3478 104.823 71.5055 69.5477C66.2439 59.6664 59.6314 50.2633 51.739 41.4977C15.5474 1.49456 -47.0233 -22.9961 -110.163 -21.9336" stroke="#37B6E1" stroke-miterlimit="10"/>
<path d="M820.863 380.223C793.275 347.711 739.45 330.286 688.967 337.511C629.454 346.011 577.477 384.951 517.679 381.711C486.181 380.011 454.326 380.223 423.397 375.017C387.987 369.067 368.221 350.951 352.151 327.417C331.531 297.189 315.391 262.126 261.352 263.986C222.317 265.314 197.004 291.876 162.092 302.129C134.504 310.204 102.152 306.486 79.755 292.62C57.3575 278.754 45.7677 255.273 50.105 232.801C53.8024 213.836 67.6675 196.889 77.1242 178.986C102.224 131.704 95.0422 75.7106 58.5663 34.9637C22.0904 -5.78317 -42.4713 -30.0613 -107.531 -27.4582" stroke="#2DBBE2" stroke-miterlimit="10"/>
<path d="M817.734 384.898C789.72 354.935 736.25 338.732 686.122 345.373C661.023 348.667 637.203 357.06 613.668 365.135C589.564 373.476 565.887 381.551 541.143 383.942C533.179 384.685 525.074 384.898 516.897 384.26C486.109 381.87 454.966 381.285 424.178 375.867C389.267 369.757 369.145 352.385 352.506 330.179C348.667 325.079 344.969 319.873 341.201 314.72C330.109 299.579 318.306 285.235 299.677 277.32C289.225 272.857 276.71 270.36 261.068 270.785C222.53 271.742 197.288 296.073 163.514 304.839C159.035 306.007 154.413 306.857 149.791 307.389C126.683 310.045 102.294 305.051 84.4474 293.31C63.0453 279.232 51.9532 255.964 56.0061 233.704C59.4191 214.845 72.3598 197.792 81.1055 179.889C96.1794 149.023 97.8859 114.598 87.0071 83.3604C81.1766 66.6792 71.7199 50.901 58.9213 36.9823C35.4573 11.5885 0.972256 -7.21773 -37.779 -17.1521C-60.0343 -22.8365 -83.7117 -25.5459 -107.46 -24.8021" stroke="#33B4E3" stroke-miterlimit="10"/>
<path d="M814.535 389.573C786.165 362.16 732.98 347.179 683.137 353.235C658.108 356.263 634.431 363.86 611.18 371.085C587.361 378.47 564.11 385.535 539.792 387.129C531.971 387.66 524.079 387.607 516.044 386.81C485.896 383.729 455.535 382.401 424.961 376.77C390.618 370.554 370.069 353.82 352.933 332.942C348.952 328.107 345.112 323.273 341.201 318.438C329.754 304.307 317.808 291.079 299.179 283.748C288.656 279.657 276.213 277.267 260.855 277.532C222.815 278.17 197.644 300.217 165.008 307.495C160.67 308.451 156.262 309.088 151.783 309.46C129.527 311.267 106.205 305.795 89.2118 293.895C68.8052 279.604 58.2108 256.601 61.9081 234.554C64.9656 215.801 77.1242 198.695 85.0167 180.738C98.8107 149.873 99.5928 115.607 88.1452 84.7416C81.9592 68.1666 72.2181 52.601 59.1351 38.8947C35.3155 13.926 0.75942 -4.45526 -38.0629 -14.3896C-60.3182 -20.074 -83.8533 -22.8365 -107.531 -22.199" stroke="#38ADE5" stroke-miterlimit="10"/>
<path d="M811.336 394.248C782.539 369.385 729.71 355.573 680.222 361.045C655.336 363.754 631.729 370.66 608.692 376.929C585.086 383.41 562.262 389.36 538.442 390.21C530.763 390.476 523.013 390.21 515.191 389.254C485.683 385.482 456.104 383.304 425.672 377.513C391.827 371.085 370.923 355.148 353.218 335.598C349.165 331.082 345.112 326.567 341.131 322.104C329.328 309.035 317.24 296.817 298.611 290.123C288.088 286.351 275.645 284.067 260.571 284.226C223.028 284.492 198 304.36 166.359 310.098C162.164 310.842 157.898 311.32 153.56 311.532C132.158 312.488 109.903 306.539 93.6916 294.479C74.2093 280.029 64.1837 257.239 67.5256 235.404C70.2986 216.704 81.533 199.545 88.7144 181.589C101.157 150.723 101.157 116.617 89.0699 86.1229C82.5284 69.6542 72.5029 54.3011 59.2066 40.8605C35.0315 16.3167 0.404192 -1.63954 -38.4181 -11.5739C-60.6023 -17.2052 -84.1375 -20.0208 -107.744 -19.5958" stroke="#3EA6E6" stroke-miterlimit="10"/>
<path d="M808.137 398.923C778.913 376.557 726.439 364.02 677.236 368.907C652.421 371.298 628.957 377.461 606.133 382.879C582.74 388.404 560.413 393.292 537.02 393.398C529.483 393.451 521.947 392.973 514.267 391.804C485.4 387.395 456.603 384.42 426.313 378.417C393.036 371.829 371.705 356.636 353.503 338.361C349.308 334.164 345.113 329.967 340.989 325.823C328.83 313.764 316.601 302.607 297.972 296.551C287.377 293.098 275.005 291.079 260.216 291.026C223.171 290.92 198.285 308.557 167.711 312.807C163.658 313.392 159.534 313.657 155.41 313.657C134.861 313.764 113.743 307.335 98.3139 295.117C79.8271 280.454 70.3703 257.929 73.2855 236.254C75.7742 217.661 86.0841 200.395 92.4834 182.439C103.647 151.52 102.722 117.626 89.9948 87.4511C83.0978 71.0886 72.7168 56.0011 59.2783 42.7199C34.7477 18.6011 0.0493227 1.01673 -38.8441 -8.81139C-61.0283 -14.4426 -84.4213 -17.3114 -107.956 -16.9926" stroke="#43A0E8" stroke-miterlimit="10"/>
<path d="M805.008 403.545C775.358 383.729 723.239 372.414 674.391 376.664C649.718 378.789 626.254 384.207 603.715 388.67C580.606 393.292 558.706 397.117 535.74 396.426C528.345 396.214 520.951 395.523 513.485 394.195C485.257 389.095 457.242 385.323 427.166 379.107C394.387 372.361 372.701 357.858 353.929 340.964C349.592 337.033 345.255 333.208 340.989 329.436C328.546 318.386 316.031 308.345 297.402 302.873C286.737 299.739 274.507 297.773 259.931 297.667C223.384 297.348 198.569 312.595 169.132 315.358C165.222 315.729 161.24 315.782 157.329 315.676C137.705 314.986 117.582 308.026 103.006 295.648C85.4438 280.773 76.5559 258.461 79.1157 237.051C81.3199 218.564 90.7054 201.245 96.3937 183.236C106.206 152.317 104.428 118.582 91.132 88.7794C83.8795 72.5231 73.2141 57.6481 59.5623 44.6325C34.6762 20.9387 -0.093356 3.77937 -39.0579 -6.04875C-61.171 -11.6269 -84.4927 -14.5488 -107.957 -14.4425" stroke="#4999E9" stroke-miterlimit="10"/>
<path d="M801.809 408.219C771.732 390.953 719.969 380.806 671.476 384.525C646.946 386.331 623.553 391.006 601.226 394.619C578.331 398.285 556.929 401.047 534.39 399.613C527.137 399.135 519.956 398.285 512.632 396.744C485.044 390.953 457.811 386.385 427.877 380.01C395.667 373.103 373.554 359.344 354.285 343.725C349.806 340.113 345.326 336.606 340.989 333.153C328.19 323.113 315.534 314.135 296.905 309.3C286.239 306.485 274.01 304.678 259.718 304.413C223.598 303.722 198.925 316.738 170.626 318.013C166.857 318.172 163.089 318.066 159.249 317.747C140.478 316.206 121.422 308.769 107.628 296.231C91.0612 281.144 82.671 259.097 84.8752 237.9C86.795 219.519 95.3274 202.094 100.162 184.085C108.695 153.166 105.922 119.591 92.1277 90.1595C84.5197 74.0095 73.5699 59.3471 59.7047 46.5439C34.5342 23.2752 -0.306373 6.54081 -39.342 -3.28732C-61.4551 -8.86544 -84.7058 -11.8404 -108.099 -11.8936" stroke="#4F92EA" stroke-miterlimit="10"/>
<path d="M798.609 412.895C768.177 398.179 716.627 389.254 668.491 392.389C644.031 393.876 620.78 397.861 598.667 400.517C575.985 403.279 555.01 404.926 532.968 402.748C525.858 402.057 518.818 400.942 511.708 399.242C484.76 392.814 458.238 387.395 428.588 380.807C396.876 373.795 374.408 360.673 354.57 346.436C349.948 343.089 345.327 339.954 340.847 336.873C327.693 327.895 314.823 319.979 296.265 315.729C285.529 313.286 273.37 311.586 259.363 311.161C223.74 310.151 199.21 320.936 171.977 320.67C168.351 320.617 164.725 320.351 161.098 319.873C143.18 317.482 125.262 309.567 112.25 296.87C96.6788 281.57 88.7863 259.789 90.635 238.751C92.2704 220.423 99.8074 202.945 104.002 184.882C111.113 153.964 107.558 120.548 93.1236 91.4887C85.1601 75.4449 73.9258 61.048 59.8473 48.4574C34.3213 25.6137 -0.590362 9.3043 -39.6971 -0.470703C-61.7391 -5.9957 -84.9187 -9.02383 -108.241 -9.23633" stroke="#548BEC" stroke-miterlimit="10"/>
<path d="M795.406 417.57C764.547 405.404 713.353 397.754 665.572 400.198C641.255 401.473 618.075 404.607 596.175 406.414C573.778 408.22 553.229 408.804 531.613 405.882C524.645 404.926 517.819 403.598 510.851 401.739C484.614 394.62 458.804 388.457 429.296 381.657C398.082 374.485 375.186 362.107 354.851 349.145C350.087 346.117 345.323 343.301 340.701 340.539C327.263 332.57 314.18 325.77 295.622 322.104C284.814 319.979 272.727 318.439 259.004 317.907C223.879 316.579 199.419 325.079 173.325 323.326C169.841 323.114 166.356 322.636 162.943 321.998C145.879 318.757 129.027 310.364 116.869 297.507C102.221 281.995 94.8977 260.426 96.462 239.654C97.813 221.432 104.426 203.901 107.839 185.786C113.669 154.867 109.19 121.611 94.1867 92.923C85.8677 76.9855 74.2779 62.8012 60.0573 50.4762C34.1757 28.0574 -0.807122 12.173 -39.9139 2.39804C-61.8847 -3.12696 -85.0643 -6.15508 -108.244 -6.58008" stroke="#5A84ED" stroke-miterlimit="10"/>
<path d="M792.281 422.244C760.996 412.628 710.157 406.2 662.66 408.059C638.414 409.016 615.377 411.459 593.69 412.309C571.506 413.213 551.455 412.735 530.266 409.016C523.511 407.847 516.757 406.306 510.002 404.235C484.405 396.425 459.376 389.466 430.082 382.506C399.436 375.175 376.114 363.541 355.281 351.906C350.375 349.197 345.469 346.7 340.705 344.256C326.911 337.297 313.615 331.559 295.128 328.531C284.249 326.725 272.304 325.291 258.794 324.653C224.167 322.953 199.779 329.222 174.821 325.981C171.48 325.556 168.138 324.866 164.938 324.069C148.726 319.978 132.942 311.106 121.636 298.091C107.984 282.419 101.158 261.063 102.367 240.45C103.363 222.334 109.193 204.697 111.753 186.581C116.232 155.663 110.9 122.566 95.2569 94.25C86.5823 78.4188 74.7081 64.4469 60.2741 52.3344C34.0371 30.3406 -1.01683 14.8813 -40.1947 5.10626C-62.1655 -0.365617 -85.2029 -3.5 -108.383 -4.03125" stroke="#607DEE" stroke-miterlimit="10"/>
<path d="M789.078 426.919C757.366 419.8 706.883 414.647 659.741 415.922C635.638 416.56 612.671 418.26 591.198 418.26C569.227 418.26 549.674 416.666 528.912 412.204C522.299 410.769 515.758 409.016 509.145 406.785C484.188 398.285 459.942 390.582 430.789 383.357C400.642 375.919 376.893 364.922 355.562 354.669C350.514 352.225 345.465 350.1 340.63 348.029C326.552 342.079 312.971 337.457 294.556 335.013C283.606 333.579 271.731 332.251 258.506 331.454C224.377 329.435 200.059 333.366 176.24 328.691C173.04 328.054 169.912 327.204 166.783 326.247C151.425 321.36 136.778 311.957 126.183 298.782C113.456 282.897 107.199 261.807 108.052 241.407C108.763 223.397 113.669 205.707 115.518 187.538C118.717 156.619 112.389 123.682 96.2488 95.7381C87.1476 80.0662 75.0601 66.2537 60.3418 54.4068C33.7492 32.8381 -1.37578 17.8037 -40.6247 8.02871C-62.5245 2.55684 -85.4909 -0.577539 -108.599 -1.32129" stroke="#6576F0" stroke-miterlimit="10"/>
<path d="M785.883 431.541C753.744 426.972 703.616 422.988 656.759 423.678C632.727 424.05 609.903 425.007 588.714 424.05C567.027 423.094 547.901 420.438 527.565 415.232C521.095 413.532 514.695 411.566 508.296 409.175C483.979 399.985 460.515 391.485 431.505 384.1C401.855 376.503 377.68 366.25 355.922 357.272C350.731 355.147 345.612 353.288 340.564 351.588C326.13 346.647 312.407 343.141 293.991 341.282C282.97 340.166 271.167 338.997 258.155 338.094C224.523 335.703 200.348 337.403 177.595 331.241C174.538 330.391 171.552 329.382 168.636 328.213C154.131 322.475 140.551 312.594 130.809 299.26C119.077 283.163 113.318 262.285 113.816 242.15C114.242 224.194 118.224 206.45 119.291 188.282C121.139 157.31 113.958 124.585 97.2488 97.0129C87.7921 81.4473 75.349 67.9004 60.4884 56.2129C33.5403 35.0691 -1.65577 20.4598 -40.9047 10.7379C-62.8045 5.31914 -85.6997 2.07852 -108.666 1.22852" stroke="#6B70F1" stroke-miterlimit="10"/>
<path d="M782.68 436.217C750.186 434.198 700.342 431.436 653.841 431.542C629.95 431.595 607.197 431.861 586.222 429.948C564.748 428.089 546.048 424.37 526.211 418.367C519.882 416.454 513.625 414.276 507.439 411.673C483.762 401.792 461.08 392.548 432.283 384.898C403.202 377.195 378.6 367.633 356.274 359.983C350.941 358.176 345.68 356.636 340.489 355.308C325.771 351.376 311.763 348.986 293.419 347.764C282.398 347.02 270.595 345.958 257.867 344.895C224.733 342.186 200.629 341.601 179.014 333.951C176.099 332.889 173.254 331.72 170.553 330.392C156.901 323.804 144.458 313.445 135.499 299.951C124.762 283.642 119.5 263.029 119.643 243.054C119.785 225.204 122.842 207.408 123.198 189.186C123.767 158.214 115.59 125.648 98.3117 98.4482C88.4995 82.9889 75.772 69.6545 60.6982 58.2326C33.3945 37.4607 -1.87263 23.3295 -41.1927 13.6076C-63.0214 8.18888 -85.8455 4.94824 -108.812 3.88574" stroke="#7069F3" stroke-miterlimit="10"/>
<path d="M779.551 440.891C746.63 441.422 697.142 439.829 650.996 439.404C627.248 439.138 604.566 438.66 583.804 435.897C562.544 433.082 544.342 428.301 524.93 421.554C518.744 419.376 512.701 416.985 506.728 414.222C483.69 403.651 461.791 393.61 433.136 385.801C404.553 377.991 379.524 369.119 356.771 362.744C351.296 361.204 345.892 360.035 340.631 359.026C325.628 356.104 311.336 354.829 293.063 354.191C281.971 353.766 270.239 352.81 257.796 351.641C225.159 348.56 201.126 345.744 180.649 336.554C177.876 335.332 175.174 333.897 172.614 332.41C159.816 324.972 148.439 314.135 140.262 300.482C130.45 283.96 125.757 263.613 125.544 243.851C125.33 226.107 127.606 208.204 127.108 189.982C126.326 159.01 117.296 126.604 99.4489 99.7756C89.2812 84.4225 76.2693 71.3006 60.9821 60.0912C33.323 39.7443 -2.01528 26.0381 -41.4064 16.3162C-63.2351 10.9506 -85.9171 7.60371 -108.812 6.38184" stroke="#7662F4" stroke-miterlimit="10"/>
<path d="M776.352 445.567C743.004 448.648 693.801 448.276 648.01 447.213C624.333 446.682 601.793 445.46 581.244 441.742C560.269 438.023 542.493 432.179 523.509 424.635C517.465 422.245 511.563 419.588 505.804 416.667C483.478 405.404 462.289 394.62 433.848 386.545C405.762 378.576 380.307 370.448 357.056 365.401C351.439 364.179 345.893 363.329 340.489 362.638C325.131 360.726 310.697 360.195 292.423 360.513C281.26 360.673 269.67 359.61 257.441 358.282C225.302 354.882 201.411 349.729 182 339.104C179.369 337.67 176.881 336.076 174.463 334.429C162.518 326.142 152.208 314.826 144.884 301.013C136.068 284.279 131.872 264.145 131.304 244.648C130.806 227.01 132.157 209.001 130.948 190.779C128.886 159.807 118.861 127.56 100.516 101.051C89.9215 85.8041 76.6963 72.9479 61.1958 61.951C33.1812 42.0291 -2.2282 28.7478 -41.6194 19.0791C-63.3769 13.7135 -86.0588 10.3666 -108.812 8.98535" stroke="#7C5BF5" stroke-miterlimit="10"/>
<path d="M773.152 450.242C739.378 455.873 690.53 456.617 645.096 455.076C621.56 454.173 599.021 452.26 578.756 447.692C557.994 443.017 540.716 436.11 522.158 427.823C516.257 425.167 510.568 422.351 504.951 419.217C483.265 407.21 462.787 395.735 434.559 387.448C407.042 379.373 381.089 371.989 357.341 368.164C351.582 367.26 345.893 366.729 340.347 366.41C324.705 365.507 309.986 366.517 291.713 366.995C280.478 367.314 268.96 366.517 257.014 365.135C225.373 361.364 201.554 353.979 183.28 341.867C180.792 340.22 178.445 338.467 176.241 336.66C165.149 327.576 155.977 315.729 149.435 301.757C141.543 284.81 137.917 264.942 137.063 245.604C136.21 228.02 136.779 210.01 134.717 191.682C131.446 160.71 120.425 128.623 101.441 102.485C90.4907 87.3447 76.91 74.701 61.2673 63.9697C32.8972 44.4729 -2.51218 31.5635 -42.0455 21.9479C-63.8031 16.6353 -86.3428 13.1822 -109.096 11.6416" stroke="#8154F7" stroke-miterlimit="10"/>
<path d="M770.023 454.916C735.823 463.097 687.33 465.063 642.18 462.885C618.716 461.716 596.318 459.06 576.267 453.535C555.718 447.957 538.867 439.988 520.807 430.851C515.047 427.982 509.501 424.901 504.098 421.607C483.051 408.91 463.355 396.691 435.27 388.138C408.25 379.957 381.871 373.263 357.696 370.766C351.795 370.182 345.964 370.022 340.276 369.969C324.349 369.81 309.346 372.201 291.144 373.263C279.838 373.901 268.39 373.263 256.73 371.722C225.586 367.579 201.909 357.91 184.702 344.363C182.356 342.504 180.151 340.538 178.089 338.572C167.922 328.638 159.745 316.313 153.985 302.182C147.088 285.076 143.96 265.419 142.751 246.294C141.614 228.816 141.258 210.701 138.485 192.372C133.863 161.401 121.918 129.472 102.436 103.707C91.1303 88.7256 77.2652 76.2412 61.4092 65.7225C32.7546 46.6506 -2.797 34.1662 -42.4015 24.5506C-64.0879 19.2912 -86.5566 15.785 -109.239 14.085" stroke="#874DF8" stroke-miterlimit="10"/>
<path d="M766.824 459.592C732.268 470.27 684.06 473.511 639.265 470.748C615.943 469.261 593.617 465.861 573.779 459.486C553.515 452.951 537.09 443.92 519.456 434.039C513.839 430.904 508.506 427.611 503.245 424.157C482.838 410.77 463.925 397.754 436.052 389.042C409.531 380.701 382.725 374.804 358.052 373.529C352.008 373.211 346.036 373.37 340.276 373.742C323.994 374.804 308.849 378.098 290.646 379.745C279.27 380.754 267.893 380.223 256.517 378.523C225.871 374.007 202.265 362.107 186.196 347.073C183.992 345.001 181.93 342.876 180.081 340.751C170.766 329.967 163.656 317.164 158.75 302.873C152.848 285.554 150.217 266.111 148.653 247.251C147.231 229.879 145.951 211.711 142.396 193.329C136.495 162.357 123.554 130.642 103.574 105.195C91.8418 90.3199 77.7633 78.048 61.6229 67.7949C32.6128 49.148 -3.00986 37.0887 -42.6143 27.473C-64.3008 22.2137 -86.6983 18.6543 -109.238 16.7949" stroke="#8D46F9" stroke-miterlimit="10"/>
<path d="M763.625 464.213C728.642 477.441 680.79 481.851 636.35 478.557C613.171 476.751 590.915 472.66 571.291 465.329C551.24 457.891 535.242 447.798 518.106 437.12C512.631 433.773 507.511 430.213 502.392 426.601C482.696 412.469 464.494 398.763 436.764 389.785C410.74 381.338 383.579 375.919 358.408 376.185C352.222 376.238 346.107 376.61 340.206 377.354C323.639 379.426 308.209 383.888 290.078 386.066C278.701 387.448 267.396 386.969 256.233 385.163C226.085 380.329 202.621 366.091 187.618 349.623C185.556 347.391 183.708 345.054 182.001 342.716C173.54 331.082 167.567 317.801 163.443 303.351C158.466 285.819 156.404 266.641 154.484 247.941C152.707 230.676 150.645 212.401 146.236 194.02C138.984 163.048 125.119 131.491 104.57 106.416C92.4822 91.6477 78.0483 79.6414 61.7657 69.5477C32.4001 51.3258 -3.29372 39.6914 -42.9693 30.1289C-64.5846 24.9227 -86.9109 21.3102 -109.451 19.2383" stroke="#9240FB" stroke-miterlimit="10"/>
<path d="M760.426 468.888C725.016 484.666 677.519 490.298 633.364 486.366C610.256 484.294 588.143 479.407 568.732 471.226C548.894 462.832 533.393 451.676 516.684 440.254C511.422 436.641 506.374 432.923 501.468 429.098C482.412 414.276 464.921 399.826 437.475 390.635C411.949 382.082 384.361 377.619 358.693 378.948C352.365 379.266 346.179 380.01 340.064 381.126C323.141 384.154 307.57 389.785 289.438 392.548C277.991 394.301 266.757 393.929 255.878 392.016C226.228 386.81 202.906 370.341 188.97 352.385C187.05 349.941 185.343 347.444 183.85 344.948C176.242 332.463 171.336 318.704 168.065 304.094C164.084 286.351 162.448 267.438 160.244 248.951C158.111 231.738 155.196 213.41 150.076 195.029C141.544 164.057 126.683 132.713 105.637 107.957C93.1226 93.3475 78.4753 81.5006 61.9794 71.6725C32.2583 53.8756 -3.50662 42.6662 -43.2533 33.1037C-64.7975 27.8975 -87.0528 24.285 -109.521 22.0537" stroke="#9839FC" stroke-miterlimit="10"/>
<path d="M757.297 473.563C721.461 491.891 674.319 498.745 630.52 494.229C607.554 491.838 585.512 486.26 566.314 477.123C546.76 467.826 531.687 455.607 515.404 443.388C510.285 439.563 505.449 435.579 500.686 431.595C482.341 416.082 465.561 400.941 438.257 391.485C413.229 382.879 385.285 379.107 359.119 381.657C352.649 382.295 346.321 383.357 340.135 384.791C322.928 388.776 307.072 395.629 289.011 398.923C277.493 401.048 266.33 400.729 255.735 398.71C226.583 393.079 203.403 374.379 190.534 354.988C188.756 352.332 187.192 349.623 185.841 346.966C179.086 333.685 175.246 319.395 172.758 304.626C169.7 286.67 168.634 267.97 166.074 249.748C163.657 232.641 159.817 214.26 153.915 195.826C144.032 164.801 128.247 133.67 106.703 109.285C93.8333 94.782 78.9016 83.1477 62.1924 73.532C32.1157 56.1602 -3.72023 45.3758 -43.4669 35.8133C-65.0112 30.6602 -87.1954 26.9414 -109.522 24.5508" stroke="#9D32FE" stroke-miterlimit="10"/>
<path d="M754.098 478.238C698.779 510.06 618.717 512.132 563.826 483.019C544.486 472.766 529.909 459.485 514.053 446.522C489.665 426.547 473.098 404.447 439.04 392.282C408.465 381.338 371.847 379.372 340.064 388.457C322.501 393.45 306.503 401.419 288.443 405.297C240.448 415.55 200.559 379.85 187.761 349.091C174.678 317.747 177.238 283.535 171.905 250.65C164.581 205.122 143.108 149.022 107.77 110.666C70.5829 70.3442 18.1799 53.4504 -43.751 38.6816C-65.2241 33.5285 -87.3372 29.8098 -109.664 27.2598" stroke="#A32BFF" stroke-miterlimit="10"/>
</g>
</g>
<g filter="url(#filter1_f_711_1146)">
<mask id="mask1_711_1146" style="mask-type:luminance" maskUnits="userSpaceOnUse" x="692" y="2" width="854" height="425">
<path d="M1545.24 2L692 2V427L1545.24 427V2Z" fill="white"/>
</mask>
<g mask="url(#mask1_711_1146)">
<path d="M606.035 433.029C612.15 407.317 647.062 391.963 680.622 388.988C714.183 386.013 748.455 391.857 782.442 391.857C873.454 391.804 959.276 345.001 989.068 279.126C998.596 258.035 1002.79 235.51 1012.11 214.313C1021.42 193.17 1037.2 172.504 1062.87 162.463C1099.78 147.96 1145.99 159.117 1183.25 175.32C1220.51 191.523 1255.35 212.985 1296.59 220.423C1350.77 230.198 1407.15 213.357 1448.61 186.317C1490.06 159.276 1519.36 122.885 1547.94 87.0791" stroke="#FF4DC4" stroke-miterlimit="10"/>
<path d="M603.977 430.532C610.731 404.926 645.501 389.626 679.133 386.545C693.709 385.217 708.356 385.535 723.074 386.439C742.414 387.607 761.754 389.679 780.952 389.998C820.13 390.635 858.384 383.145 891.944 368.589C917.897 357.326 940.934 342.504 959.35 324.707C972.504 312.064 983.028 297.826 990.351 282.367C993.622 275.46 996.324 268.342 998.812 261.17C1003.86 246.614 1007.98 231.845 1014.53 217.767C1021.92 201.776 1033.16 186.317 1049.79 175.798C1054.98 172.504 1060.6 169.689 1066.79 167.457C1092.67 158.161 1122.6 161.348 1151.26 169.264C1163.63 172.664 1175.79 176.967 1187.09 181.536C1199.75 186.689 1212.12 192.214 1224.42 197.526C1248.6 207.939 1272.56 217.554 1298.44 221.007C1315.29 223.292 1331.86 222.654 1348.36 219.945C1381.7 214.367 1414.55 199.492 1441.93 180.473C1449.39 175.267 1456.57 169.742 1463.54 164.057C1494.33 138.664 1520.07 109.339 1545.45 81.6074" stroke="#F552C5" stroke-miterlimit="10"/>
<path d="M601.984 428.035C609.379 402.589 644.006 387.288 677.709 384.101C692.285 382.72 707.004 383.039 721.793 383.995C741.133 385.27 760.402 387.554 779.671 388.192C818.778 389.52 856.889 383.198 890.805 369.279C917.043 358.495 940.435 344.363 959.562 327.257C973.214 314.985 984.093 300.96 991.772 285.607C995.185 278.754 998.029 271.635 1000.59 264.464C1005.85 249.96 1010.19 235.139 1017.01 221.167C1024.76 205.282 1036.35 190.195 1053.56 180.207C1058.89 177.126 1064.58 174.47 1070.77 172.451C1096.79 164.004 1126.3 167.988 1154.88 175.904C1167.33 179.357 1179.56 183.448 1190.93 187.751C1203.73 192.532 1216.24 197.632 1228.47 202.254C1252.58 211.445 1275.83 219.573 1300.22 221.592C1316 222.92 1331.15 221.379 1346.29 217.873C1377.01 210.701 1408.22 194.445 1435.1 174.629C1442.49 169.157 1449.61 163.473 1456.57 157.629C1487.65 131.492 1515.3 102.379 1542.68 76.1885" stroke="#EB57C7" stroke-miterlimit="10"/>
<path d="M599.922 425.485C607.957 400.197 642.37 384.844 676.144 381.604C690.721 380.222 705.51 380.488 720.3 381.497C739.64 382.826 758.909 385.322 778.106 386.279C817.142 388.244 855.182 383.198 889.454 369.863C915.904 359.557 939.795 346.169 959.562 329.701C973.782 317.854 985.017 304.041 992.98 288.794C996.535 281.994 999.451 274.929 1002.22 267.757C1007.7 253.254 1012.32 238.432 1019.36 224.566C1027.39 208.788 1039.41 194.072 1057.12 184.563C1062.59 181.641 1068.28 179.197 1074.54 177.391C1100.63 169.794 1129.78 174.576 1158.37 182.491C1170.81 185.944 1183.11 189.929 1194.7 193.913C1207.64 198.376 1220.23 202.891 1232.46 206.982C1256.49 214.951 1279.17 221.591 1301.99 222.122C1316.78 222.494 1330.36 220.051 1344.16 215.801C1372.24 207.141 1401.82 189.451 1428.2 168.732C1435.46 163.047 1442.57 157.097 1449.6 151.094C1480.96 124.16 1510.61 95.3131 1539.91 70.6631" stroke="#E15DC8" stroke-miterlimit="10"/>
<path d="M597.859 422.988C606.534 397.806 640.806 382.506 674.651 379.16C689.298 377.725 704.088 377.991 718.877 379.106C738.217 380.541 757.486 383.197 776.613 384.525C815.577 387.128 853.546 383.303 888.102 370.606C914.837 360.778 939.155 348.135 959.561 332.303C974.351 320.881 985.941 307.281 994.188 292.141C997.886 285.341 1000.94 278.328 1003.79 271.156C1009.48 256.706 1014.31 241.831 1021.71 228.072C1030.1 212.453 1042.4 198.003 1060.74 189.078C1066.29 186.369 1072.12 184.085 1078.3 182.491C1104.54 175.744 1133.27 181.322 1161.78 189.291C1174.22 192.797 1186.66 196.569 1198.33 200.288C1211.34 204.431 1224.14 208.469 1236.29 211.869C1260.26 218.563 1282.37 223.769 1303.63 222.866C1317.42 222.281 1329.44 218.935 1341.95 213.888C1367.41 203.635 1395.28 184.616 1421.31 163.047C1428.42 157.097 1435.53 150.988 1442.64 144.825C1474.28 117.147 1505.85 88.5658 1537.13 65.4033" stroke="#D762CA" stroke-miterlimit="10"/>
<path d="M595.867 420.492C605.111 395.47 639.311 380.17 673.227 376.717C687.875 375.23 702.735 375.495 717.525 376.664C736.865 378.152 756.134 381.073 775.189 382.667C814.083 385.961 851.981 383.305 886.892 371.245C913.912 361.895 938.585 349.942 959.702 334.802C975.06 323.752 986.935 310.417 995.538 295.33C999.378 288.583 1002.58 281.57 1005.49 274.398C1011.47 259.948 1016.51 245.073 1024.12 231.42C1032.8 215.908 1045.52 201.83 1064.44 193.383C1070.13 190.833 1075.96 188.761 1082.21 187.38C1108.52 181.483 1136.89 187.805 1165.4 195.827C1177.92 199.333 1190.43 202.998 1202.24 206.398C1215.39 210.223 1228.26 213.73 1240.42 216.545C1264.31 222.017 1285.85 225.736 1305.55 223.345C1318.42 221.805 1328.8 217.555 1340.03 211.711C1362.86 199.917 1389.09 179.464 1414.62 157.045C1421.66 150.83 1428.7 144.508 1435.81 138.186C1467.73 109.711 1501.22 81.3953 1534.57 59.7734" stroke="#CD67CB" stroke-miterlimit="10"/>
<path d="M593.809 417.942C603.692 393.079 637.75 377.726 671.738 374.273C686.385 372.785 701.317 372.998 716.106 374.22C735.517 375.813 754.715 378.895 773.771 380.807C812.593 384.738 850.42 383.357 885.616 371.882C912.92 363.01 938.019 351.801 959.777 337.298C975.704 326.673 987.933 313.551 996.821 298.57C1000.73 291.876 1004.07 284.917 1007.2 277.745C1013.39 263.295 1018.65 248.42 1026.54 234.873C1035.5 219.467 1048.58 205.707 1068.14 197.845C1073.97 195.507 1079.87 193.595 1086.13 192.426C1112.58 187.379 1140.52 194.498 1169.03 202.52C1181.55 206.026 1194.2 209.532 1206.08 212.667C1219.37 216.173 1232.32 219.148 1244.54 221.326C1268.29 225.576 1289.48 227.807 1307.47 223.982C1319.42 221.432 1328.23 216.279 1338.12 209.745C1358.31 196.41 1382.91 174.576 1408.01 151.307C1414.91 144.879 1421.95 138.345 1429.13 131.863C1461.34 102.645 1496.82 74.5416 1532.09 54.4072" stroke="#C36CCD" stroke-miterlimit="10"/>
<path d="M591.816 415.445C602.34 390.742 636.256 375.389 670.243 371.83C684.962 370.289 699.893 370.502 714.754 371.777C734.165 373.423 753.292 376.717 772.347 379.002C811.099 383.623 848.854 383.411 884.335 372.573C911.923 364.18 937.449 353.714 959.775 339.848C976.271 329.648 988.857 316.739 998.029 301.864C1002.08 295.223 1005.57 288.264 1008.77 281.092C1015.16 266.695 1020.64 251.767 1028.82 238.327C1038.13 223.027 1051.5 209.639 1071.69 202.255C1077.59 200.077 1083.57 198.377 1089.89 197.367C1116.42 193.17 1144 201.086 1172.44 209.108C1185.03 212.667 1197.76 216.014 1209.7 218.83C1223.14 222.017 1236.22 224.461 1248.38 226.055C1272.06 229.083 1292.75 229.72 1309.03 224.567C1320.13 221.061 1327.24 215.005 1335.84 207.673C1353.4 192.745 1376.3 169.583 1400.97 145.411C1407.8 138.717 1414.76 131.97 1422.02 125.33C1454.51 95.3141 1491.91 67.5297 1529.17 48.8828" stroke="#B972CE" stroke-miterlimit="10"/>
<path d="M589.754 412.948C600.917 388.351 634.691 373.051 668.75 369.386C683.468 367.792 698.471 368.004 713.331 369.332C732.742 371.086 751.869 374.539 770.854 377.142C809.534 382.401 847.218 383.41 883.054 373.21C910.927 365.295 936.88 355.573 959.846 342.345C976.911 332.517 989.78 319.873 999.308 305.051C1003.5 298.464 1007.06 291.504 1010.4 284.332C1017.01 269.936 1022.77 255.007 1031.16 241.673C1040.76 226.479 1054.56 213.411 1075.25 206.611C1081.29 204.645 1087.33 203.104 1093.66 202.307C1120.33 198.961 1147.42 207.673 1175.93 215.695C1188.51 219.254 1201.31 222.442 1213.47 224.992C1227.05 227.861 1240.21 229.826 1252.36 230.729C1275.97 232.536 1296.23 231.579 1310.81 225.045C1321.05 220.476 1326.45 213.57 1333.78 205.548C1348.71 189.026 1369.97 164.536 1394.22 139.514C1400.9 132.607 1407.87 125.648 1415.12 118.795C1447.9 88.0355 1487.22 60.4637 1526.47 43.3574" stroke="#AF77CF" stroke-miterlimit="10"/>
<path d="M587.762 410.398C599.565 385.96 633.197 370.607 667.326 366.889C682.045 365.295 697.047 365.454 711.979 366.835C731.39 368.642 750.517 372.361 769.43 375.282C808.039 381.232 845.582 383.464 881.773 373.848C909.93 366.411 936.309 357.432 959.916 344.842C977.549 335.439 990.774 323.007 1000.59 308.292C1004.92 301.757 1008.62 294.851 1012.11 287.679C1019 273.336 1024.9 258.354 1033.65 245.126C1043.6 230.039 1057.68 217.289 1079.01 211.073C1085.13 209.267 1091.24 207.992 1097.64 207.354C1124.38 204.857 1151.11 214.367 1179.62 222.389C1192.28 225.948 1205.15 229.029 1217.38 231.261C1231.1 233.757 1244.33 235.245 1256.49 235.564C1279.95 236.148 1299.86 233.492 1312.73 225.736C1322.12 220.104 1325.81 212.401 1331.86 203.582C1344.16 185.52 1363.78 159.595 1387.53 133.776C1394.07 126.604 1401.04 119.432 1408.36 112.473C1441.43 80.9699 1482.67 53.6105 1523.91 38.0449" stroke="#A57CD1" stroke-miterlimit="10"/>
<path d="M585.703 407.9C598.075 383.622 631.636 368.269 665.836 364.444C680.555 362.797 695.629 362.956 710.56 364.444C729.971 366.356 749.098 370.234 768.012 373.475C806.55 380.063 844.021 383.516 880.568 374.538C909.009 367.578 935.886 359.344 960.061 347.391C978.264 338.413 991.844 326.194 1001.94 311.584C1006.42 305.103 1010.26 298.197 1013.82 291.025C1020.93 276.681 1027.11 261.7 1036.07 248.578C1046.31 233.65 1060.74 221.166 1082.71 215.481C1088.97 213.888 1095.16 212.772 1101.56 212.347C1128.43 210.7 1154.74 220.953 1183.18 229.028C1195.84 232.641 1208.85 235.51 1221.15 237.475C1234.95 239.653 1248.38 240.61 1260.47 240.291C1283.87 239.653 1303.35 235.244 1314.51 226.266C1322.97 219.466 1325.11 211.019 1329.8 201.456C1339.47 181.8 1357.46 154.547 1380.71 127.825C1387.18 120.388 1394.08 113.056 1401.47 105.885C1434.82 73.5846 1478.05 46.5439 1521.28 32.4658" stroke="#9B81D2" stroke-miterlimit="10"/>
<path d="M583.641 405.404C596.653 381.232 630.071 365.932 664.272 362.001C679.061 360.301 694.135 360.46 709.138 362.001C728.549 363.966 747.604 368.057 766.518 371.616C804.985 378.894 842.385 383.516 879.216 375.176C907.942 368.694 935.246 361.204 960.061 349.888C978.832 341.335 992.768 329.329 1003.15 314.772C1007.77 308.344 1011.68 301.438 1015.38 294.266C1022.7 279.922 1029.1 264.994 1038.35 251.926C1048.87 237.104 1063.66 224.938 1086.27 219.838C1092.6 218.404 1098.93 217.501 1105.25 217.288C1132.2 216.491 1158.15 227.541 1186.6 235.616C1199.32 239.229 1212.41 241.991 1224.85 243.638C1238.79 245.497 1252.29 245.976 1264.38 245.019C1287.63 243.16 1306.62 236.944 1316.22 226.851C1323.75 218.935 1324.25 209.744 1327.66 199.438C1334.7 178.188 1350.99 149.607 1373.88 122.035C1380.21 114.385 1387.11 106.788 1394.5 99.51C1428.13 66.4662 1473.28 39.6381 1518.51 27.1006" stroke="#9187D4" stroke-miterlimit="10"/>
<path d="M581.648 402.853C595.3 378.841 628.577 363.488 662.848 359.503C677.638 357.803 692.783 357.91 707.785 359.503C727.268 361.575 746.252 365.878 765.095 369.756C803.49 377.672 840.82 383.516 878.006 375.813C907.017 369.81 934.747 363.063 960.202 352.385C979.542 344.256 993.762 332.463 1004.5 318.013C1009.19 311.638 1013.32 304.785 1017.08 297.613C1024.62 283.322 1031.23 268.341 1040.76 255.431C1051.64 240.716 1066.71 228.816 1089.97 224.3C1096.44 223.025 1102.76 222.335 1109.16 222.335C1136.25 222.388 1161.78 234.235 1190.22 242.363C1202.95 245.975 1216.1 248.578 1228.69 249.96C1242.77 251.5 1256.35 251.447 1268.43 249.853C1291.61 246.825 1309.96 238.75 1317.99 227.488C1324.53 218.403 1323.47 208.469 1325.53 197.419C1329.87 174.575 1344.59 144.613 1366.98 116.191C1373.17 108.275 1379.99 100.519 1387.53 93.0283C1421.45 59.1877 1468.52 32.6252 1515.73 21.5752" stroke="#878CD5" stroke-miterlimit="10"/>
<path d="M579.586 400.357C593.878 376.504 627.012 361.151 661.355 357.114C676.144 355.361 691.36 355.467 706.363 357.114C725.845 359.239 744.83 363.754 763.601 367.951C801.926 376.504 839.184 383.623 876.655 376.504C905.878 370.979 934.106 364.976 960.201 354.936C980.181 347.232 994.686 335.651 1005.71 321.307C1010.54 314.986 1014.81 308.132 1018.72 300.961C1026.54 286.67 1033.37 271.689 1043.18 258.886C1054.34 244.276 1069.77 232.695 1093.59 228.764C1100.13 227.701 1106.6 227.17 1113 227.382C1140.16 228.286 1165.33 240.929 1193.7 249.057C1206.43 252.723 1219.73 255.114 1232.38 256.229C1246.6 257.451 1260.26 256.92 1272.34 254.689C1295.38 250.439 1313.09 240.557 1319.7 228.179C1325.17 217.926 1322.61 207.301 1323.4 195.454C1325.1 171.07 1338.19 139.726 1360.16 110.454C1366.27 102.273 1373.03 94.3043 1380.56 86.7074C1414.76 52.123 1463.75 25.8262 1512.96 16.2637" stroke="#7D91D7" stroke-miterlimit="10"/>
<path d="M577.594 397.86C592.525 374.113 625.517 358.813 659.931 354.67C674.792 352.863 690.008 352.97 705.011 354.67C724.493 356.901 743.477 361.576 762.249 366.145C800.502 375.388 837.689 383.676 875.516 377.195C905.024 372.148 933.75 366.941 960.413 357.485C980.962 350.207 995.823 338.838 1007.13 324.548C1012.11 318.226 1016.44 311.426 1020.5 304.254C1028.53 290.016 1035.57 274.982 1045.67 262.285C1057.18 247.782 1072.9 236.466 1097.36 233.12C1104.04 232.216 1110.51 231.898 1116.98 232.323C1144.29 234.023 1169.03 247.516 1197.4 255.645C1210.2 259.31 1223.57 261.595 1236.36 262.391C1250.73 263.295 1264.52 262.232 1276.54 259.363C1299.5 253.891 1316.5 242.257 1321.69 228.71C1326.03 217.288 1322.04 205.92 1321.55 193.382C1320.55 167.404 1332.07 134.732 1353.54 104.557C1359.52 96.1633 1366.27 87.982 1373.88 80.1727C1408.36 44.7914 1459.34 18.7602 1510.54 10.7383" stroke="#7396D8" stroke-miterlimit="10"/>
<path d="M575.535 395.31C591.036 371.723 623.956 356.37 658.37 352.173C673.231 350.367 688.518 350.42 703.592 352.226C723.074 354.51 742.059 359.451 760.759 364.286C798.941 374.167 835.986 383.676 874.168 377.832C903.961 373.264 933.113 368.801 960.417 359.982C981.534 353.129 996.679 341.973 1008.34 327.789C1013.46 321.52 1017.94 314.773 1022.06 307.601C1030.31 293.364 1037.63 278.329 1047.94 265.739C1059.75 251.342 1075.75 240.345 1100.92 237.582C1107.74 236.839 1114.28 236.732 1120.75 237.37C1148.13 239.92 1172.52 254.157 1200.82 262.339C1213.61 266.057 1227.12 268.129 1239.99 268.661C1254.43 269.192 1268.36 267.704 1280.38 264.198C1303.28 257.557 1319.49 244.17 1323.33 229.348C1326.53 216.811 1321.12 204.698 1319.35 191.364C1315.72 163.792 1325.53 129.792 1346.65 98.7668C1352.48 90.1074 1359.23 81.7137 1366.91 73.798C1401.68 37.673 1454.58 11.8543 1507.77 5.37305" stroke="#699CD9" stroke-miterlimit="10"/>
<path d="M573.543 392.813C589.683 369.385 622.462 354.032 656.947 349.729C671.808 347.87 687.166 347.923 702.24 349.782C721.722 352.173 740.635 357.273 759.336 362.426C797.447 372.998 834.421 383.729 872.887 378.47C902.964 374.379 932.614 370.66 960.486 362.479C982.173 356.104 997.673 345.107 1009.62 331.029C1014.88 324.813 1019.43 318.067 1023.77 310.895C1032.23 296.71 1039.77 281.623 1050.36 269.138C1062.45 254.901 1078.8 244.117 1104.61 241.992C1111.51 241.407 1118.12 241.513 1124.66 242.363C1152.18 245.763 1176.14 260.798 1204.44 268.979C1217.31 272.698 1230.89 274.663 1243.9 274.876C1258.48 275.088 1272.49 273.07 1284.5 268.926C1307.26 261.063 1322.76 245.923 1325.25 229.932C1327.31 216.279 1320.41 203.423 1317.42 189.345C1311.03 160.232 1319.34 124.798 1339.96 92.976C1345.72 84.1041 1352.41 75.4978 1360.09 67.3697C1395.14 30.4478 1449.96 4.89473 1505.14 -0.0458984" stroke="#5FA1DB" stroke-miterlimit="10"/>
<path d="M571.48 390.317C588.261 367.048 620.897 351.695 655.453 347.285C670.385 345.373 685.743 345.426 700.817 347.339C720.37 349.835 739.213 355.095 757.913 360.62C795.953 371.829 832.856 383.782 871.678 379.16C902.039 375.548 932.116 372.626 960.628 365.029C982.954 359.079 998.739 348.295 1010.97 334.323C1016.37 328.16 1021.07 321.414 1025.47 314.242C1034.15 300.057 1041.9 284.97 1052.78 272.592C1065.22 258.46 1081.93 247.942 1108.24 246.401C1115.28 245.976 1121.96 246.295 1128.5 247.304C1156.09 251.554 1179.7 267.385 1208 275.567C1220.87 279.285 1234.52 281.092 1247.67 281.038C1262.39 280.932 1276.54 278.435 1288.48 273.654C1311.17 264.57 1325.89 247.782 1326.95 230.464C1327.88 215.748 1319.56 202.042 1315.29 187.22C1306.26 156.567 1312.94 119.751 1333.07 87.026C1338.68 77.8885 1345.37 69.0697 1353.12 60.8354C1388.46 23.1697 1445.2 -2.11777 1502.36 -5.62402" stroke="#55A6DC" stroke-miterlimit="10"/>
<path d="M569.418 387.766C586.838 364.604 619.261 349.251 653.96 344.788C668.891 342.876 684.25 342.876 699.395 344.841C718.948 347.391 737.79 352.916 756.419 358.707C794.388 370.607 831.22 383.729 870.327 379.744C900.972 376.61 931.475 374.485 960.628 367.472C983.523 361.947 999.592 351.376 1012.18 337.457C1017.72 331.347 1022.56 324.654 1027.04 317.482C1036 303.297 1043.96 288.21 1055.12 275.938C1067.85 261.913 1084.92 251.66 1111.86 250.757C1118.97 250.544 1125.73 251.076 1132.34 252.244C1160.07 257.344 1183.18 273.972 1211.48 282.154C1224.42 285.926 1238.14 287.572 1251.37 287.201C1266.23 286.776 1280.45 283.747 1292.4 278.329C1315.01 268.076 1328.94 249.535 1328.66 230.994C1328.44 215.216 1318.77 200.713 1313.16 185.094C1301.5 152.847 1306.47 114.704 1326.24 81.1287C1331.72 71.7256 1338.4 62.7474 1346.22 54.3006C1381.84 15.8381 1440.57 -9.18379 1499.66 -11.1494" stroke="#4BABDE" stroke-miterlimit="10"/>
<path d="M567.43 385.27C585.419 362.267 617.771 346.914 652.469 342.345C667.401 340.379 682.83 340.379 698.046 342.398C717.6 345.054 736.442 350.739 755 356.901C792.898 369.439 829.658 383.835 869.12 380.435C900.05 377.779 931.051 376.398 960.701 370.023C984.165 364.976 1000.59 354.564 1013.53 340.751C1019.15 334.695 1024.13 328.001 1028.82 320.829C1037.99 306.698 1046.17 291.557 1057.61 279.392C1070.7 265.473 1088.05 255.485 1115.64 255.167C1122.89 255.114 1129.71 255.857 1136.25 257.239C1164.06 263.189 1186.81 280.614 1215.11 288.848C1228.05 292.62 1241.91 294.107 1255.28 293.47C1270.28 292.726 1284.65 289.22 1296.52 283.163C1319.06 271.742 1332.22 251.501 1330.58 231.632C1329.16 214.792 1318.14 199.492 1311.24 183.129C1296.95 149.288 1300.29 109.817 1319.56 75.3385C1324.96 65.7229 1331.58 56.4791 1339.4 47.926C1375.3 8.71972 1435.95 -16.0896 1497.1 -16.5146" stroke="#41B1DF" stroke-miterlimit="10"/>
<path d="M565.367 382.773C583.996 359.929 616.206 344.576 650.975 339.954C665.978 337.935 681.408 337.935 696.624 340.007C716.177 342.716 735.019 348.613 753.506 355.095C791.333 368.323 828.022 383.888 867.769 381.126C898.983 378.948 930.411 378.416 960.701 372.573C984.734 368.004 1001.51 357.751 1014.74 344.045C1020.5 338.041 1025.62 331.348 1030.38 324.176C1039.77 310.045 1048.23 294.904 1059.89 282.845C1073.26 269.032 1090.96 259.257 1119.19 259.629C1126.51 259.735 1133.41 260.691 1140.02 262.285C1167.97 269.085 1190.29 287.254 1218.59 295.541C1231.6 299.313 1245.54 300.695 1258.98 299.738C1274.05 298.676 1288.56 294.638 1300.43 287.945C1322.9 275.301 1335.27 253.413 1332.29 232.27C1329.73 214.366 1317.28 198.216 1309.11 181.11C1292.11 145.729 1293.89 104.823 1312.73 69.5477C1317.99 59.6664 1324.61 50.2633 1332.5 41.4977C1368.69 1.49456 1431.26 -22.9961 1494.4 -21.9336" stroke="#37B6E1" stroke-miterlimit="10"/>
<path d="M563.375 380.223C590.963 347.711 644.788 330.286 695.271 337.511C754.785 346.011 806.761 384.951 866.559 381.711C898.058 380.011 929.912 380.223 960.842 375.017C996.251 369.067 1016.02 350.951 1032.09 327.417C1052.71 297.189 1068.85 262.126 1122.89 263.986C1161.92 265.314 1187.23 291.876 1222.15 302.129C1249.73 310.204 1282.09 306.486 1304.48 292.62C1326.88 278.754 1338.47 255.273 1334.13 232.801C1330.44 213.836 1316.57 196.889 1307.11 178.986C1282.01 131.704 1289.2 75.7106 1325.67 34.9637C1362.15 -5.78317 1426.71 -30.0613 1491.77 -27.4582" stroke="#2DBBE2" stroke-miterlimit="10"/>
<path d="M566.504 384.898C594.519 354.935 647.988 338.732 698.116 345.373C723.215 348.667 747.035 357.06 770.57 365.135C794.674 373.476 818.351 381.551 843.095 383.942C851.059 384.685 859.165 384.898 867.341 384.26C898.129 381.87 929.272 381.285 960.06 375.867C994.972 369.757 1015.09 352.385 1031.73 330.179C1035.57 325.079 1039.27 319.873 1043.04 314.72C1054.13 299.579 1065.93 285.235 1084.56 277.32C1095.01 272.857 1107.53 270.36 1123.17 270.785C1161.71 271.742 1186.95 296.073 1220.72 304.839C1225.2 306.007 1229.83 306.857 1234.45 307.389C1257.56 310.045 1281.94 305.051 1299.79 293.31C1321.19 279.232 1332.29 255.964 1328.23 233.704C1324.82 214.845 1311.88 197.792 1303.13 179.889C1288.06 149.023 1286.35 114.598 1297.23 83.3604C1303.06 66.6792 1312.52 50.901 1325.32 36.9823C1348.78 11.5885 1383.27 -7.21773 1422.02 -17.1521C1444.27 -22.8365 1467.95 -25.5459 1491.7 -24.8021" stroke="#33B4E3" stroke-miterlimit="10"/>
<path d="M569.703 389.573C598.073 362.16 651.258 347.179 701.102 353.235C726.13 356.263 749.807 363.86 773.058 371.085C796.878 378.47 820.128 385.535 844.446 387.129C852.267 387.66 860.16 387.607 868.194 386.81C898.342 383.729 928.703 382.401 959.277 376.77C993.62 370.554 1014.17 353.82 1031.3 332.942C1035.29 328.107 1039.13 323.273 1043.04 318.438C1054.48 304.307 1066.43 291.079 1085.06 283.748C1095.58 279.657 1108.03 277.267 1123.38 277.532C1161.42 278.17 1186.59 300.217 1219.23 307.495C1223.57 308.451 1227.98 309.088 1232.46 309.46C1254.71 311.267 1278.03 305.795 1295.03 293.895C1315.43 279.604 1326.03 256.601 1322.33 234.554C1319.27 215.801 1307.11 198.695 1299.22 180.738C1285.43 149.873 1284.65 115.607 1296.09 84.7416C1302.28 68.1666 1312.02 52.601 1325.1 38.8947C1348.92 13.926 1383.48 -4.45526 1422.3 -14.3896C1444.56 -20.074 1468.09 -22.8365 1491.77 -22.199" stroke="#38ADE5" stroke-miterlimit="10"/>
<path d="M572.902 394.248C601.699 369.385 654.529 355.573 704.017 361.045C728.903 363.754 752.509 370.66 775.546 376.929C799.153 383.41 821.977 389.36 845.796 390.21C853.475 390.476 861.226 390.21 869.047 389.254C898.555 385.482 928.134 383.304 958.566 377.513C992.411 371.085 1013.32 355.148 1031.02 335.598C1035.07 331.082 1039.13 326.567 1043.11 322.104C1054.91 309.035 1067 296.817 1085.63 290.123C1096.15 286.351 1108.59 284.067 1123.67 284.226C1161.21 284.492 1186.24 304.36 1217.88 310.098C1222.07 310.842 1226.34 311.32 1230.68 311.532C1252.08 312.488 1274.34 306.539 1290.55 294.479C1310.03 280.029 1320.05 257.239 1316.71 235.404C1313.94 216.704 1302.71 199.545 1295.52 181.589C1283.08 150.723 1283.08 116.617 1295.17 86.1229C1301.71 69.6542 1311.74 54.3011 1325.03 40.8605C1349.21 16.3167 1383.83 -1.63954 1422.66 -11.5739C1444.84 -17.2052 1468.38 -20.0208 1491.98 -19.5958" stroke="#3EA6E6" stroke-miterlimit="10"/>
<path d="M576.102 398.923C605.325 376.557 657.799 364.02 707.002 368.907C731.817 371.298 755.282 377.461 778.106 382.879C801.499 388.404 823.825 393.292 847.218 393.398C854.755 393.451 862.292 392.973 869.971 391.804C898.839 387.395 927.636 384.42 957.926 378.417C991.202 371.829 1012.53 356.636 1030.74 338.361C1034.93 334.164 1039.13 329.967 1043.25 325.823C1055.41 313.764 1067.64 302.607 1086.27 296.551C1096.86 293.098 1109.23 291.079 1124.02 291.026C1161.07 290.92 1185.95 308.557 1216.53 312.807C1220.58 313.392 1224.7 313.657 1228.83 313.657C1249.38 313.764 1270.49 307.335 1285.92 295.117C1304.41 280.454 1313.87 257.929 1310.95 236.254C1308.46 217.661 1298.15 200.395 1291.75 182.439C1280.59 151.52 1281.52 117.626 1294.24 87.4511C1301.14 71.0886 1311.52 56.0011 1324.96 42.7199C1349.49 18.6011 1384.19 1.01673 1423.08 -8.81139C1445.27 -14.4426 1468.66 -17.3114 1492.19 -16.9926" stroke="#43A0E8" stroke-miterlimit="10"/>
<path d="M579.23 403.545C608.88 383.729 660.999 372.414 709.847 376.664C734.52 378.789 757.984 384.207 780.524 388.67C803.632 393.292 825.532 397.117 848.498 396.426C855.893 396.214 863.288 395.523 870.753 394.195C898.981 389.095 926.996 385.323 957.073 379.107C989.851 372.361 1011.54 357.858 1030.31 340.964C1034.65 337.033 1038.98 333.208 1043.25 329.436C1055.69 318.386 1068.21 308.345 1086.84 302.873C1097.5 299.739 1109.73 297.773 1124.31 297.667C1160.85 297.348 1185.67 312.595 1215.11 315.358C1219.02 315.729 1223 315.782 1226.91 315.676C1246.53 314.986 1266.66 308.026 1281.23 295.648C1298.79 280.773 1307.68 258.461 1305.12 237.051C1302.92 218.564 1293.53 201.245 1287.84 183.236C1278.03 152.317 1279.81 118.582 1293.11 88.7794C1300.36 72.5231 1311.02 57.6481 1324.68 44.6325C1349.56 20.9387 1384.33 3.77937 1423.3 -6.04875C1445.41 -11.6269 1468.73 -14.5488 1492.2 -14.4425" stroke="#4999E9" stroke-miterlimit="10"/>
<path d="M582.43 408.219C612.506 390.953 664.269 380.806 712.762 384.525C737.292 386.331 760.685 391.006 783.012 394.619C805.907 398.285 827.309 401.047 849.849 399.613C857.101 399.135 864.283 398.285 871.606 396.744C899.194 390.953 926.427 386.385 956.361 380.01C988.571 373.103 1010.68 359.344 1029.95 343.725C1034.43 340.113 1038.91 336.606 1043.25 333.153C1056.05 323.113 1068.7 314.135 1087.33 309.3C1098 306.485 1110.23 304.678 1124.52 304.413C1160.64 303.722 1185.31 316.738 1213.61 318.013C1217.38 318.172 1221.15 318.066 1224.99 317.747C1243.76 316.206 1262.82 308.769 1276.61 296.231C1293.18 281.144 1301.57 259.097 1299.36 237.9C1297.44 219.519 1288.91 202.094 1284.08 184.085C1275.54 153.166 1278.32 119.591 1292.11 90.1595C1299.72 74.0095 1310.67 59.3471 1324.53 46.5439C1349.7 23.2752 1384.54 6.54081 1423.58 -3.28732C1445.69 -8.86544 1468.94 -11.8404 1492.34 -11.8936" stroke="#4F92EA" stroke-miterlimit="10"/>
<path d="M585.629 412.895C616.061 398.179 667.611 389.254 715.748 392.389C740.207 393.876 763.458 397.861 785.571 400.517C808.253 403.279 829.228 404.926 851.27 402.748C858.381 402.057 865.42 400.942 872.53 399.242C899.478 392.814 926 387.395 955.65 380.807C987.362 373.795 1009.83 360.673 1029.67 346.436C1034.29 343.089 1038.91 339.954 1043.39 336.873C1056.55 327.895 1069.41 319.979 1087.97 315.729C1098.71 313.286 1110.87 311.586 1124.88 311.161C1160.5 310.151 1185.03 320.936 1212.26 320.67C1215.89 320.617 1219.51 320.351 1223.14 319.873C1241.06 317.482 1258.98 309.567 1271.99 296.87C1287.56 281.57 1295.45 259.789 1293.6 238.751C1291.97 220.423 1284.43 202.945 1280.24 184.882C1273.13 153.964 1276.68 120.548 1291.11 91.4887C1299.08 75.4449 1310.31 61.048 1324.39 48.4574C1349.92 25.6137 1384.83 9.3043 1423.94 -0.470703C1445.98 -5.9957 1469.16 -9.02383 1492.48 -9.23633" stroke="#548BEC" stroke-miterlimit="10"/>
<path d="M588.828 417.57C619.687 405.404 670.881 397.754 718.663 400.198C742.98 401.473 766.159 404.607 788.059 406.414C810.457 408.22 831.006 408.804 852.621 405.882C859.589 404.926 866.415 403.598 873.383 401.739C899.62 394.62 925.431 388.457 954.938 381.657C986.153 374.485 1009.05 362.107 1029.38 349.145C1034.15 346.117 1038.91 343.301 1043.53 340.539C1056.97 332.57 1070.05 325.77 1088.61 322.104C1099.42 319.979 1111.51 318.439 1125.23 317.907C1160.36 316.579 1184.81 325.079 1210.91 323.326C1214.39 323.114 1217.88 322.636 1221.29 321.998C1238.36 318.757 1255.21 310.364 1267.37 297.507C1282.01 281.995 1289.34 260.426 1287.77 239.654C1286.42 221.432 1279.81 203.901 1276.4 185.786C1270.57 154.867 1275.04 121.611 1290.05 92.923C1298.37 76.9855 1309.96 62.8012 1324.18 50.4762C1350.06 28.0574 1385.04 12.173 1424.15 2.39804C1446.12 -3.12696 1469.3 -6.15508 1492.48 -6.58008" stroke="#5A84ED" stroke-miterlimit="10"/>
<path d="M591.957 422.244C623.242 412.628 674.081 406.2 721.578 408.059C745.824 409.016 768.862 411.459 790.548 412.309C812.732 413.213 832.783 412.735 853.972 409.016C860.727 407.847 867.482 406.306 874.237 404.235C899.834 396.425 924.862 389.466 954.157 382.506C984.802 375.175 1008.12 363.541 1028.96 351.906C1033.86 349.197 1038.77 346.7 1043.53 344.256C1057.33 337.297 1070.62 331.559 1089.11 328.531C1099.99 326.725 1111.93 325.291 1125.44 324.653C1160.07 322.953 1184.46 329.222 1209.42 325.981C1212.76 325.556 1216.1 324.866 1219.3 324.069C1235.51 319.978 1251.3 311.106 1262.6 298.091C1276.25 282.419 1283.08 261.063 1281.87 240.45C1280.88 222.334 1275.05 204.697 1272.49 186.581C1268.01 155.663 1273.34 122.566 1288.98 94.25C1297.66 78.4188 1309.53 64.4469 1323.96 52.3344C1350.2 30.3406 1385.26 14.8813 1424.43 5.10626C1446.4 -0.365617 1469.44 -3.5 1492.62 -4.03125" stroke="#607DEE" stroke-miterlimit="10"/>
<path d="M595.156 426.919C626.868 419.8 677.351 414.647 724.493 415.922C748.597 416.56 771.563 418.26 793.036 418.26C815.007 418.26 834.561 416.666 855.323 412.204C861.935 410.769 868.477 409.016 875.089 406.785C900.047 398.285 924.293 390.582 953.445 383.357C983.593 375.919 1007.34 364.922 1028.67 354.669C1033.72 352.225 1038.77 350.1 1043.6 348.029C1057.68 342.079 1071.26 337.457 1089.68 335.013C1100.63 333.579 1112.5 332.251 1125.73 331.454C1159.86 329.435 1184.17 333.366 1207.99 328.691C1211.19 328.054 1214.32 327.204 1217.45 326.247C1232.81 321.36 1247.46 311.957 1258.05 298.782C1270.78 282.897 1277.04 261.807 1276.18 241.407C1275.47 223.397 1270.57 205.707 1268.72 187.538C1265.52 156.619 1271.85 123.682 1287.99 95.7381C1297.09 80.0662 1309.17 66.2537 1323.89 54.4068C1350.49 32.8381 1385.61 17.8037 1424.86 8.02871C1446.76 2.55684 1469.73 -0.577539 1492.83 -1.32129" stroke="#6576F0" stroke-miterlimit="10"/>
<path d="M598.359 431.541C630.498 426.972 680.626 422.988 727.483 423.678C751.516 424.05 774.34 425.007 795.528 424.05C817.215 423.094 836.342 420.438 856.677 415.232C863.148 413.532 869.547 411.566 875.946 409.175C900.263 399.985 923.727 391.485 952.737 384.1C982.387 376.503 1006.56 366.25 1028.32 357.272C1033.51 355.147 1038.63 353.288 1043.68 351.588C1058.11 346.647 1071.84 343.141 1090.25 341.282C1101.27 340.166 1113.08 338.997 1126.09 338.094C1159.72 335.703 1183.89 337.403 1206.65 331.241C1209.7 330.391 1212.69 329.382 1215.61 328.213C1230.11 322.475 1243.69 312.594 1253.43 299.26C1265.16 283.163 1270.92 262.285 1270.43 242.15C1270 224.194 1266.02 206.45 1264.95 188.282C1263.1 157.31 1270.28 124.585 1286.99 97.0129C1296.45 81.4473 1308.89 67.9004 1323.75 56.2129C1350.7 35.0691 1385.9 20.4598 1425.15 10.7379C1447.05 5.31914 1469.94 2.07852 1492.91 1.22852" stroke="#6B70F1" stroke-miterlimit="10"/>
<path d="M601.559 436.217C634.053 434.198 683.896 431.436 730.398 431.542C754.288 431.595 777.041 431.861 798.017 429.948C819.49 428.089 838.19 424.37 858.028 418.367C864.356 416.454 870.613 414.276 876.799 411.673C900.476 401.792 923.158 392.548 951.955 384.898C981.036 377.195 1005.64 367.633 1027.96 359.983C1033.3 358.176 1038.56 356.636 1043.75 355.308C1058.47 351.376 1072.47 348.986 1090.82 347.764C1101.84 347.02 1113.64 345.958 1126.37 344.895C1159.51 342.186 1183.61 341.601 1205.22 333.951C1208.14 332.889 1210.98 331.72 1213.69 330.392C1227.34 323.804 1239.78 313.445 1248.74 299.951C1259.48 283.642 1264.74 263.029 1264.6 243.054C1264.45 225.204 1261.4 207.408 1261.04 189.186C1260.47 158.214 1268.65 125.648 1285.93 98.4482C1295.74 82.9889 1308.47 69.6545 1323.54 58.2326C1350.84 37.4607 1386.11 23.3295 1425.43 13.6076C1447.26 8.18888 1470.08 4.94824 1493.05 3.88574" stroke="#7069F3" stroke-miterlimit="10"/>
<path d="M604.688 440.891C637.608 441.422 687.096 439.829 733.242 439.404C756.991 439.138 779.672 438.66 800.435 435.897C821.694 433.082 839.897 428.301 859.308 421.554C865.494 419.376 871.538 416.985 877.51 414.222C900.548 403.651 922.448 393.61 951.102 385.801C979.686 377.991 1004.71 369.119 1027.47 362.744C1032.94 361.204 1038.35 360.035 1043.61 359.026C1058.61 356.104 1072.9 354.829 1091.18 354.191C1102.27 353.766 1114 352.81 1126.44 351.641C1159.08 348.56 1183.11 345.744 1203.59 336.554C1206.36 335.332 1209.06 333.897 1211.62 332.41C1224.42 324.972 1235.8 314.135 1243.98 300.482C1253.79 283.96 1258.48 263.613 1258.69 243.851C1258.91 226.107 1256.63 208.204 1257.13 189.982C1257.91 159.01 1266.94 126.604 1284.79 99.7756C1294.96 84.4225 1307.97 71.3006 1323.26 60.0912C1350.92 39.7443 1386.25 26.0381 1425.64 16.3162C1447.47 10.9506 1470.16 7.60371 1493.05 6.38184" stroke="#7662F4" stroke-miterlimit="10"/>
<path d="M607.887 445.567C641.234 448.648 690.438 448.276 736.228 447.213C759.905 446.682 782.445 445.46 802.994 441.742C823.969 438.023 841.745 432.179 860.73 424.635C866.773 422.245 872.675 419.588 878.434 416.667C900.761 405.404 921.949 394.62 950.391 386.545C978.477 378.576 1003.93 370.448 1027.18 365.401C1032.8 364.179 1038.35 363.329 1043.75 362.638C1059.11 360.726 1073.54 360.195 1091.81 360.513C1102.98 360.673 1114.57 359.61 1126.8 358.282C1158.94 354.882 1182.83 349.729 1202.24 339.104C1204.87 337.67 1207.36 336.076 1209.78 334.429C1221.72 326.142 1232.03 314.826 1239.35 301.013C1248.17 284.279 1252.37 264.145 1252.93 244.648C1253.43 227.01 1252.08 209.001 1253.29 190.779C1255.35 159.807 1265.38 127.56 1283.72 101.051C1294.32 85.8041 1307.54 72.9479 1323.04 61.951C1351.06 42.0291 1386.47 28.7478 1425.86 19.0791C1447.62 13.7135 1470.3 10.3666 1493.05 8.98535" stroke="#7C5BF5" stroke-miterlimit="10"/>
<path d="M611.086 450.242C644.86 455.873 693.708 456.617 739.143 455.076C762.678 454.173 785.218 452.26 805.482 447.692C826.244 443.017 843.522 436.11 862.08 427.823C867.982 425.167 873.67 422.351 879.287 419.217C900.974 407.21 921.451 395.735 949.679 387.448C977.196 379.373 1003.15 371.989 1026.9 368.164C1032.66 367.26 1038.34 366.729 1043.89 366.41C1059.53 365.507 1074.25 366.517 1092.53 366.995C1103.76 367.314 1115.28 366.517 1127.22 365.135C1158.86 361.364 1182.68 353.979 1200.96 341.867C1203.45 340.22 1205.79 338.467 1208 336.66C1219.09 327.576 1228.26 315.729 1234.8 301.757C1242.7 284.81 1246.32 264.942 1247.17 245.604C1248.03 228.02 1247.46 210.01 1249.52 191.682C1252.79 160.71 1263.81 128.623 1282.8 102.485C1293.75 87.3447 1307.33 74.701 1322.97 63.9697C1351.34 44.4729 1386.75 31.5635 1426.28 21.9479C1448.04 16.6353 1470.58 13.1822 1493.33 11.6416" stroke="#8154F7" stroke-miterlimit="10"/>
<path d="M614.215 454.916C648.415 463.097 696.908 465.063 742.058 462.885C765.522 461.716 787.92 459.06 807.971 453.535C828.52 447.957 845.371 439.988 863.431 430.851C869.191 427.982 874.737 424.901 880.141 421.607C901.187 408.91 920.883 396.691 948.969 388.138C975.988 379.957 1002.37 373.263 1026.54 370.766C1032.44 370.182 1038.27 370.022 1043.96 369.969C1059.89 369.81 1074.89 372.201 1093.09 373.263C1104.4 373.901 1115.85 373.263 1127.51 371.722C1158.65 367.579 1182.33 357.91 1199.54 344.363C1201.88 342.504 1204.09 340.538 1206.15 338.572C1216.32 328.638 1224.49 316.313 1230.25 302.182C1237.15 285.076 1240.28 265.419 1241.49 246.294C1242.62 228.816 1242.98 210.701 1245.75 192.372C1250.37 161.401 1262.32 129.472 1281.8 103.707C1293.11 88.7256 1306.97 76.2412 1322.83 65.7225C1351.48 46.6506 1387.04 34.1662 1426.64 24.5506C1448.33 19.2912 1470.79 15.785 1493.48 14.085" stroke="#874DF8" stroke-miterlimit="10"/>
<path d="M617.414 459.592C651.97 470.27 700.178 473.511 744.973 470.748C768.295 469.261 790.621 465.861 810.459 459.486C830.724 452.951 847.148 443.92 864.782 434.039C870.399 430.904 875.732 427.611 880.993 424.157C901.4 410.77 920.314 397.754 948.186 389.042C974.707 380.701 1001.51 374.804 1026.19 373.529C1032.23 373.211 1038.2 373.37 1043.96 373.742C1060.24 374.804 1075.39 378.098 1093.59 379.745C1104.97 380.754 1116.34 380.223 1127.72 378.523C1158.37 374.007 1181.97 362.107 1198.04 347.073C1200.25 345.001 1202.31 342.876 1204.16 340.751C1213.47 329.967 1220.58 317.164 1225.49 302.873C1231.39 285.554 1234.02 266.111 1235.59 247.251C1237.01 229.879 1238.29 211.711 1241.84 193.329C1247.74 162.357 1260.68 130.642 1280.66 105.195C1292.4 90.3199 1306.47 78.048 1322.62 67.7949C1351.63 49.148 1387.25 37.0887 1426.85 27.473C1448.54 22.2137 1470.94 18.6543 1493.48 16.7949" stroke="#8D46F9" stroke-miterlimit="10"/>
<path d="M620.613 464.213C655.596 477.441 703.448 481.851 747.888 478.557C771.068 476.751 793.323 472.66 812.947 465.329C832.998 457.891 848.997 447.798 866.133 437.12C871.607 433.773 876.727 430.213 881.846 426.601C901.542 412.469 919.744 398.763 947.474 389.785C973.498 381.338 1000.66 375.919 1025.83 376.185C1032.02 376.238 1038.13 376.61 1044.03 377.354C1060.6 379.426 1076.03 383.888 1094.16 386.066C1105.54 387.448 1116.84 386.969 1128.01 385.163C1158.15 380.329 1181.62 366.091 1196.62 349.623C1198.68 347.391 1200.53 345.054 1202.24 342.716C1210.7 331.082 1216.67 317.801 1220.8 303.351C1225.77 285.819 1227.83 266.641 1229.75 247.941C1231.53 230.676 1233.59 212.401 1238 194.02C1245.25 163.048 1259.12 131.491 1279.67 106.416C1291.76 91.6477 1306.19 79.6414 1322.47 69.5477C1351.84 51.3258 1387.53 39.6914 1427.21 30.1289C1448.82 24.9227 1471.15 21.3102 1493.69 19.2383" stroke="#9240FB" stroke-miterlimit="10"/>
<path d="M623.812 468.888C659.222 484.666 706.719 490.298 750.874 486.366C773.982 484.294 796.095 479.407 815.507 471.226C835.344 462.832 850.845 451.676 867.554 440.254C872.816 436.641 877.864 432.923 882.77 429.098C901.826 414.276 919.317 399.826 946.763 390.635C972.289 382.082 999.877 377.619 1025.55 378.948C1031.87 379.266 1038.06 380.01 1044.17 381.126C1061.1 384.154 1076.67 389.785 1094.8 392.548C1106.25 394.301 1117.48 393.929 1128.36 392.016C1158.01 386.81 1181.33 370.341 1195.27 352.385C1197.19 349.941 1198.89 347.444 1200.39 344.948C1208 332.463 1212.9 318.704 1216.17 304.094C1220.15 286.351 1221.79 267.438 1223.99 248.951C1226.13 231.738 1229.04 213.41 1234.16 195.029C1242.69 164.057 1257.55 132.713 1278.6 107.957C1291.12 93.3475 1305.76 81.5006 1322.26 71.6725C1351.98 53.8756 1387.74 42.6662 1427.49 33.1037C1449.04 27.8975 1471.29 24.285 1493.76 22.0537" stroke="#9839FC" stroke-miterlimit="10"/>
<path d="M626.941 473.563C662.777 491.891 709.919 498.745 753.718 494.229C776.685 491.838 798.727 486.26 817.924 477.123C837.478 467.826 852.552 455.607 868.834 443.388C873.954 439.563 878.789 435.579 883.553 431.595C901.897 416.082 918.678 400.941 945.981 391.485C971.01 382.879 998.953 379.107 1025.12 381.657C1031.59 382.295 1037.92 383.357 1044.1 384.791C1061.31 388.776 1077.17 395.629 1095.23 398.923C1106.75 401.048 1117.91 400.729 1128.5 398.71C1157.66 393.079 1180.84 374.379 1193.7 354.988C1195.48 352.332 1197.05 349.623 1198.4 346.966C1205.15 333.685 1208.99 319.395 1211.48 304.626C1214.54 286.67 1215.6 267.97 1218.16 249.748C1220.58 232.641 1224.42 214.26 1230.32 195.826C1240.21 164.801 1255.99 133.67 1277.54 109.285C1290.41 94.782 1305.34 83.1477 1322.05 73.532C1352.12 56.1602 1387.96 45.3758 1427.71 35.8133C1449.25 30.6602 1471.43 26.9414 1493.76 24.5508" stroke="#9D32FE" stroke-miterlimit="10"/>
<path d="M630.141 478.238C685.459 510.06 765.521 512.132 820.413 483.019C839.753 472.766 854.329 459.485 870.185 446.522C894.573 426.547 911.14 404.447 945.199 392.282C975.773 381.338 1012.39 379.372 1044.17 388.457C1061.74 393.45 1077.74 401.419 1095.8 405.297C1143.79 415.55 1183.68 379.85 1196.48 349.091C1209.56 317.747 1207 283.535 1212.33 250.65C1219.66 205.122 1241.13 149.022 1276.47 110.666C1313.66 70.3442 1366.06 53.4504 1427.99 38.6816C1449.46 33.5285 1471.58 29.8098 1493.9 27.2598" stroke="#A32BFF" stroke-miterlimit="10"/>
</g>
</g>
<defs>
<filter id="filter0_f_711_1146" x="-163" y="0" width="857.238" height="429" filterUnits="userSpaceOnUse" color-interpolation-filters="sRGB">
<feFlood flood-opacity="0" result="BackgroundImageFix"/>
<feBlend mode="normal" in="SourceGraphic" in2="BackgroundImageFix" result="shape"/>
<feGaussianBlur stdDeviation="1" result="effect1_foregroundBlur_711_1146"/>
</filter>
<filter id="filter1_f_711_1146" x="690" y="0" width="857.238" height="429" filterUnits="userSpaceOnUse" color-interpolation-filters="sRGB">
<feFlood flood-opacity="0" result="BackgroundImageFix"/>
<feBlend mode="normal" in="SourceGraphic" in2="BackgroundImageFix" result="shape"/>
<feGaussianBlur stdDeviation="1" result="effect1_foregroundBlur_711_1146"/>
</filter>
</defs>
</svg>
