<svg width="23" height="24" viewBox="0 0 23 24" fill="none" xmlns="http://www.w3.org/2000/svg">
<path d="M16.0377 5.47128L13.5617 6.46123L16.0377 7.45003C16.2649 7.54183 16.4463 7.72013 16.5421 7.9457C16.6378 8.17128 16.64 8.42565 16.5482 8.65285C16.4564 8.88006 16.2781 9.0615 16.0526 9.15724C15.827 9.25299 15.5726 9.25521 15.3454 9.16341L11.0764 7.45464L6.80737 9.16341C6.69486 9.20886 6.57451 9.23171 6.45318 9.23065C6.33184 9.2296 6.21191 9.20465 6.10021 9.15724C5.98852 9.10983 5.88726 9.04089 5.80221 8.95435C5.71716 8.8678 5.64999 8.76536 5.60454 8.65285C5.55908 8.54035 5.53623 8.42 5.53729 8.29867C5.53835 8.17733 5.56329 8.05739 5.6107 7.9457C5.65811 7.83401 5.72706 7.73275 5.8136 7.6477C5.90014 7.56265 6.00259 7.49548 6.11509 7.45003L8.59113 6.46123L6.11509 5.47128C6.00259 5.42582 5.90014 5.35865 5.8136 5.2736C5.72706 5.18856 5.65811 5.08729 5.6107 4.9756C5.56329 4.86391 5.53835 4.74397 5.53729 4.62264C5.53623 4.5013 5.55908 4.38095 5.60454 4.26845C5.64999 4.15595 5.71716 4.0535 5.80221 3.96696C5.88726 3.88041 5.98852 3.81147 6.10021 3.76406C6.21191 3.71665 6.33184 3.6917 6.45318 3.69065C6.57451 3.68959 6.69486 3.71244 6.80737 3.7579L11.0764 5.46666L15.3454 3.7579C15.4579 3.71244 15.5783 3.68959 15.6996 3.69065C15.8209 3.6917 15.9409 3.71665 16.0526 3.76406C16.1643 3.81147 16.2655 3.88041 16.3506 3.96696C16.4356 4.0535 16.5028 4.15595 16.5482 4.26845C16.5937 4.38095 16.6166 4.5013 16.6155 4.62264C16.6144 4.74397 16.5895 4.86391 16.5421 4.9756C16.4947 5.08729 16.4257 5.18856 16.3392 5.2736C16.2526 5.35865 16.1502 5.42582 16.0377 5.47128ZM22.1528 6.43238C22.1528 11.3614 21.2297 15.132 20.4579 17.4257C19.4506 20.4025 18.0776 22.6743 16.6907 23.6562C16.4269 23.846 16.1167 23.9613 15.7929 23.9899C15.4691 24.0186 15.1435 23.9595 14.8504 23.8189C14.5533 23.6786 14.2986 23.4621 14.1126 23.1912C13.9265 22.9204 13.8156 22.6051 13.7913 22.2774C13.6932 20.9505 13.2086 16.6146 11.0764 16.6146C8.94419 16.6146 8.45959 20.9517 8.36152 22.2809C8.32693 22.7473 8.11759 23.1834 7.77533 23.5021C7.43308 23.8209 6.98313 23.9987 6.51546 24C6.13737 23.9995 5.76896 23.8804 5.46204 23.6596C4.0775 22.6754 2.70218 20.4036 1.69492 17.4292C0.923032 15.132 0 11.3614 0 6.43238C0.00762785 4.72376 0.691728 3.08772 1.90262 1.88224C3.11351 0.676757 4.75259 -1.70262e-05 6.46123 3.21263e-10H15.6916C17.4002 -1.70262e-05 19.0393 0.676757 20.2502 1.88224C21.4611 3.08772 22.1452 4.72376 22.1528 6.43238ZM20.3067 6.43238C20.2991 5.21337 19.8095 4.04688 18.9448 3.1876C18.0801 2.32832 16.9106 1.84604 15.6916 1.84607H6.46123C5.24199 1.84604 4.07229 2.32848 3.20757 3.18801C2.34285 4.04754 1.85338 5.21432 1.84607 6.43354C1.84607 11.1122 2.71256 14.6716 3.44407 16.8338C4.719 20.6021 6.09778 21.8378 6.5143 22.1412C6.87313 17.3842 8.49075 14.7685 11.0764 14.7685C13.662 14.7685 15.282 17.3888 15.6327 22.1459C16.0481 21.847 17.4292 20.6159 18.7087 16.8384C19.4402 14.6716 20.3067 11.1122 20.3067 6.43354V6.43238Z" fill="black"/>
</svg>
